<mxfile host="app.diagrams.net" modified="2023-12-27T01:30:45.986Z" agent="Mozilla/5.0 (Windows NT 10.0; Win64; x64) AppleWebKit/537.36 (KHTML, like Gecko) Chrome/120.0.0.0 Safari/537.36" etag="LLRIJucT4UldsOqf4jab" version="22.1.12" type="github">
  <diagram id="ZOgNd56ILPtr-vvvS191" name="Page-1">
    <mxGraphModel dx="2514" dy="2061" grid="1" gridSize="10" guides="1" tooltips="1" connect="1" arrows="1" fold="1" page="1" pageScale="1" pageWidth="827" pageHeight="1169" math="0" shadow="0">
      <root>
        <mxCell id="0" />
        <mxCell id="1" parent="0" />
        <mxCell id="kqTs5dwu49YhG8XziNuj-3" value="" style="edgeStyle=orthogonalEdgeStyle;rounded=0;orthogonalLoop=1;jettySize=auto;html=1;" parent="1" source="kqTs5dwu49YhG8XziNuj-1" target="kqTs5dwu49YhG8XziNuj-2" edge="1">
          <mxGeometry relative="1" as="geometry" />
        </mxCell>
        <mxCell id="kqTs5dwu49YhG8XziNuj-1" value="设备原始数据" style="rounded=0;whiteSpace=wrap;html=1;fillColor=#f5f5f5;fontColor=#333333;strokeColor=#666666;" parent="1" vertex="1">
          <mxGeometry x="350" y="360" width="120" height="60" as="geometry" />
        </mxCell>
        <mxCell id="kqTs5dwu49YhG8XziNuj-5" value="" style="edgeStyle=orthogonalEdgeStyle;rounded=0;orthogonalLoop=1;jettySize=auto;html=1;" parent="1" source="kqTs5dwu49YhG8XziNuj-2" target="kqTs5dwu49YhG8XziNuj-4" edge="1">
          <mxGeometry relative="1" as="geometry" />
        </mxCell>
        <mxCell id="kqTs5dwu49YhG8XziNuj-7" value="" style="edgeStyle=orthogonalEdgeStyle;rounded=0;orthogonalLoop=1;jettySize=auto;html=1;" parent="1" source="kqTs5dwu49YhG8XziNuj-2" target="kqTs5dwu49YhG8XziNuj-6" edge="1">
          <mxGeometry relative="1" as="geometry" />
        </mxCell>
        <mxCell id="kqTs5dwu49YhG8XziNuj-9" value="" style="edgeStyle=orthogonalEdgeStyle;rounded=0;orthogonalLoop=1;jettySize=auto;html=1;" parent="1" source="kqTs5dwu49YhG8XziNuj-2" target="kqTs5dwu49YhG8XziNuj-8" edge="1">
          <mxGeometry relative="1" as="geometry" />
        </mxCell>
        <mxCell id="kqTs5dwu49YhG8XziNuj-2" value="分析格式" style="rhombus;whiteSpace=wrap;html=1;rounded=0;" parent="1" vertex="1">
          <mxGeometry x="370" y="490" width="80" height="80" as="geometry" />
        </mxCell>
        <mxCell id="kqTs5dwu49YhG8XziNuj-4" value="XML" style="whiteSpace=wrap;html=1;rounded=0;" parent="1" vertex="1">
          <mxGeometry x="590" y="500" width="120" height="60" as="geometry" />
        </mxCell>
        <mxCell id="kqTs5dwu49YhG8XziNuj-6" value="Json" style="whiteSpace=wrap;html=1;rounded=0;" parent="1" vertex="1">
          <mxGeometry x="100" y="500" width="120" height="60" as="geometry" />
        </mxCell>
        <mxCell id="kqTs5dwu49YhG8XziNuj-11" value="" style="edgeStyle=orthogonalEdgeStyle;rounded=0;orthogonalLoop=1;jettySize=auto;html=1;" parent="1" source="kqTs5dwu49YhG8XziNuj-8" target="kqTs5dwu49YhG8XziNuj-10" edge="1">
          <mxGeometry relative="1" as="geometry" />
        </mxCell>
        <mxCell id="kqTs5dwu49YhG8XziNuj-13" value="" style="edgeStyle=orthogonalEdgeStyle;rounded=0;orthogonalLoop=1;jettySize=auto;html=1;" parent="1" source="kqTs5dwu49YhG8XziNuj-8" target="kqTs5dwu49YhG8XziNuj-12" edge="1">
          <mxGeometry relative="1" as="geometry" />
        </mxCell>
        <mxCell id="kqTs5dwu49YhG8XziNuj-15" value="" style="edgeStyle=orthogonalEdgeStyle;rounded=0;orthogonalLoop=1;jettySize=auto;html=1;" parent="1" source="kqTs5dwu49YhG8XziNuj-8" target="kqTs5dwu49YhG8XziNuj-14" edge="1">
          <mxGeometry relative="1" as="geometry" />
        </mxCell>
        <mxCell id="kqTs5dwu49YhG8XziNuj-8" value="厂家自定义规则" style="whiteSpace=wrap;html=1;rounded=0;" parent="1" vertex="1">
          <mxGeometry x="350" y="660" width="120" height="60" as="geometry" />
        </mxCell>
        <mxCell id="kqTs5dwu49YhG8XziNuj-10" value="表格类型" style="whiteSpace=wrap;html=1;rounded=0;" parent="1" vertex="1">
          <mxGeometry x="350" y="800" width="120" height="60" as="geometry" />
        </mxCell>
        <mxCell id="kqTs5dwu49YhG8XziNuj-12" value="纯文本" style="whiteSpace=wrap;html=1;rounded=0;" parent="1" vertex="1">
          <mxGeometry x="550" y="660" width="120" height="60" as="geometry" />
        </mxCell>
        <mxCell id="kqTs5dwu49YhG8XziNuj-14" value="回车标识" style="whiteSpace=wrap;html=1;rounded=0;" parent="1" vertex="1">
          <mxGeometry x="150" y="660" width="120" height="60" as="geometry" />
        </mxCell>
        <mxCell id="s7KcSAxYDBWQE20m-vqa-7" style="edgeStyle=orthogonalEdgeStyle;rounded=0;orthogonalLoop=1;jettySize=auto;html=1;entryX=0;entryY=0.5;entryDx=0;entryDy=0;" edge="1" parent="1" source="s7KcSAxYDBWQE20m-vqa-1" target="s7KcSAxYDBWQE20m-vqa-5">
          <mxGeometry relative="1" as="geometry" />
        </mxCell>
        <mxCell id="s7KcSAxYDBWQE20m-vqa-1" value="JSON" style="rounded=0;whiteSpace=wrap;html=1;" vertex="1" parent="1">
          <mxGeometry x="150" y="20" width="120" height="60" as="geometry" />
        </mxCell>
        <mxCell id="s7KcSAxYDBWQE20m-vqa-8" style="edgeStyle=orthogonalEdgeStyle;rounded=0;orthogonalLoop=1;jettySize=auto;html=1;entryX=0;entryY=0.5;entryDx=0;entryDy=0;" edge="1" parent="1" source="s7KcSAxYDBWQE20m-vqa-2" target="s7KcSAxYDBWQE20m-vqa-5">
          <mxGeometry relative="1" as="geometry" />
        </mxCell>
        <mxCell id="s7KcSAxYDBWQE20m-vqa-2" value="XML" style="rounded=0;whiteSpace=wrap;html=1;" vertex="1" parent="1">
          <mxGeometry x="150" y="110" width="120" height="60" as="geometry" />
        </mxCell>
        <mxCell id="s7KcSAxYDBWQE20m-vqa-9" style="edgeStyle=orthogonalEdgeStyle;rounded=0;orthogonalLoop=1;jettySize=auto;html=1;entryX=0;entryY=0.5;entryDx=0;entryDy=0;" edge="1" parent="1" source="s7KcSAxYDBWQE20m-vqa-3" target="s7KcSAxYDBWQE20m-vqa-5">
          <mxGeometry relative="1" as="geometry" />
        </mxCell>
        <mxCell id="s7KcSAxYDBWQE20m-vqa-3" value="CVS" style="rounded=0;whiteSpace=wrap;html=1;" vertex="1" parent="1">
          <mxGeometry x="150" y="200" width="120" height="60" as="geometry" />
        </mxCell>
        <mxCell id="s7KcSAxYDBWQE20m-vqa-6" style="edgeStyle=orthogonalEdgeStyle;rounded=0;orthogonalLoop=1;jettySize=auto;html=1;entryX=0;entryY=0.5;entryDx=0;entryDy=0;" edge="1" parent="1" source="s7KcSAxYDBWQE20m-vqa-4" target="s7KcSAxYDBWQE20m-vqa-5">
          <mxGeometry relative="1" as="geometry" />
        </mxCell>
        <mxCell id="s7KcSAxYDBWQE20m-vqa-4" value="厂家自己的文本格式" style="rounded=0;whiteSpace=wrap;html=1;" vertex="1" parent="1">
          <mxGeometry x="150" y="-70" width="120" height="60" as="geometry" />
        </mxCell>
        <mxCell id="s7KcSAxYDBWQE20m-vqa-12" style="edgeStyle=orthogonalEdgeStyle;rounded=0;orthogonalLoop=1;jettySize=auto;html=1;entryX=0;entryY=0.5;entryDx=0;entryDy=0;" edge="1" parent="1" source="s7KcSAxYDBWQE20m-vqa-5" target="s7KcSAxYDBWQE20m-vqa-10">
          <mxGeometry relative="1" as="geometry" />
        </mxCell>
        <mxCell id="s7KcSAxYDBWQE20m-vqa-5" value="解析&lt;br&gt;处理" style="rhombus;whiteSpace=wrap;html=1;" vertex="1" parent="1">
          <mxGeometry x="414" y="50" width="80" height="80" as="geometry" />
        </mxCell>
        <mxCell id="s7KcSAxYDBWQE20m-vqa-10" value="标准的JSON" style="rounded=1;whiteSpace=wrap;html=1;" vertex="1" parent="1">
          <mxGeometry x="560" y="60" width="120" height="60" as="geometry" />
        </mxCell>
        <mxCell id="s7KcSAxYDBWQE20m-vqa-13" value="" style="shape=image;verticalLabelPosition=bottom;labelBackgroundColor=default;verticalAlign=top;aspect=fixed;imageAspect=0;image=data:image/png,iVBORw0KGgoAAAANSUhEUgAAAbAAAAMYCAYAAACqnrKAAAAgAElEQVR4Aey9z4slS3bnWX/L/Auxmt1sBeqVYEC9qqhciN4WTaPFQDcMVHBB0ELULF7NQhS3ouhFC6kX9ajJIEfoEfmoRU4qG9RPRLYWlalMUQ8yqUVDQEOCDeeX2TnmZn79+nWPiHvvtyDr+jV3O3bsYx7ne4+5P7Mf/Pa3v034Bwa4B3AP4B7APXBs98APvnz5kvAPDHAP4B7APYB74NjuAQgYBBw/YHAP4B7APXCU9wAEDDfuUd64x/ZLEf4iu8E9sPw9AAGDgEHAcA/gHsA9cJT3AAQMN+5R3rj4Nbv8r1kwBdNjuwcgYBAwCBjuAdwDuAeO8h6AgOHGPcob99h+KcJfZDe4B5a/ByBgEDAIGO4B3AO4B47yHoCA4cY9yhsXv2aX/zULpmB6bPcABAwCBgHDPYB7APfAUd4DEDDcuEd54x7bL0X4i+wG98Dy9wAEDAIGAcM9gHsA98BR3gOTBOz+0/fp++97/36f7jH4Rzn4+EW4/C9CMAVT3AMPdw/sFrB//k/pT/73f5uuNlftf//uX6d/9ZNv0u8hYhCx1j3w25+nH178MP38tw93UyOAgDXugfO4B3YLGAWgn3wzEpx/n37zH3+YfvgffwMRawXwIyv75icX6Yfb9+3x/uYqXVxcpW/27BPZ3Kfe++0P08WPfp7eN9oZ9a9xPQLZeQQyjPN5jvMCAkbgfp+++cm/Sn+y/ad24JsaWPjX+kW6+mZ8MDggjopqVX9m4J39R/HQ7Rlf5XdxQYIx/V8RrPfp5z/q8R87V/E2f/LnN+nqome3rivtFJ9iXQhYzQvfZ/+d5vsTDI+V4V4Cdv/P/5Te/4/OYP/Pf0o//9GfpP/0z53zU24WCFj4AbB3sGZ+jQyJy6dM45FYdK4jUc5ZURSVL19EdPYRzXBttvslfan7ENr9kvZmMuW+wzXhvjvWYAa/D4i9R/o3sIeA/SZd/a8X6eL/uEn3/99P07/+oz9Kf2T/fvTz9N++UHDpBL+F4Zx2BhbFoGQiE25OH/z5eHcWJvZFkIKocAZnYkg+VWM7kmXuEhkePy9a7v6ox5a/78gm2xl7LbIT+H2ZVue7X32VvvpK//3quyr4f5++vS7nf/ny+/TlSyzLdb/6On3n+m4B+PuXvyz2qZ3rb9P3jevsevmUNr7+bko/cU1kBx7HymMPAfuSvn9zk/7+X/qDDQFTNiPBfdeNUp7/1FNpfe7Z5kDATIBadYf2uW2bmvW2qD9WngOpCu2g/EsKdvL15sOw3ej/RWnL+6B2doljtjVRjMr15N8EAfvuaycotWjU363Pw08SQRG34TkSMH9u7Nri//S2S51h2zgHJsd0D+whYL9Pv9lepZ/+P+/Tl/vfx9fqP93zr9BRAeNgRL/i46/9kGHka/xNFK+nQFr/Sifg8Zf6jmyB27lwU2K+vXjMwdhlAMFfnTr74fYbfnZEGQxnA7WA7dFeuXlGAv1AFNRnbkdFy9p0vg8zrPjCRhAH6gNnScT/Kl3xixjtjG6QAXHb1RiYz91zKojkr4pib5zjGMTxYn7MP/pKPso9EkWdy6ifnTplPKSdWlzC9+++DsJT183ff/dt+uVIVhVsfvmS6PtXlOlRvSprk3P/b/raMsIqY/PZohdFrmd1Bllkg6mNHz6rjBus8n39CPfGHgL29+mnf3iR/rf/85t0/9ub9FP/Wv1f3PAbY7sFjIKKCyAcNFygGwQ3ES8fsLKguF/+g0BX2+Xv1u7QZn8AvklXrh15PuNfRrCg6/pAgzi7Pf/HsISAWZ+9XTuu7ct3EyPm/KOfp59n4WrbGrDXm3jfcmvvG3oDkZmTPxVX/aHi74fRsbMfFPkPq+pzGCfiIveGMWjaHsnASCy+fkkiY1OI7SlCvm5kqi8KGGVWv0zf/o78q7OssXNO+Lj/rm7og90P+GyOd753wOcp8tlDwHYP4BQBi8GhCiiVgFlQq1+nDsGR69TBtbKbA5UEKPuFv/+AVHbt5QUvcnTDL9Je3dZu/uEFiCYXb6O2T2wKR2I8TSi8TXdcjSWzzlzcdRog7N7hMa95uiAy3a+OGGUfWudbZUNfv5AAqEiVZ04iEP55Vc6cnP+tLKq+D0N2RO24DCmIW8jknEBxe9+lr78y4ZM+5LqNTK72Ad8b4+7HEcdPIhPdQ8A0A9v8Jn2ZnYHVv6irIFoFvV6wCgLGASlOF9lUWQ7AfM0P0w9/VKan/B8oB00/1RYCqAQ1s0mf2W6eQqz+u6mD2rM/nIrNlD8YL1p83ObS7EsO7NS+D+TD/vv6Yz8GhKuKovoTf8BYX8tnFrCJ/rMvzRdCfB+KfRp3vn/cVGW5F/p17BqeknOCUr7XAvKlO+Xnp/LMrv/MQmNj7jMmJ1rxurp9EjDLBN2n+Z5FuJ0len9wHO8f8Hg6PPYQsKWegfnOV0Gag1YRuckC1gxgrh0vKLuutaDxRV9GCNNQlb9TBGyP9uIfRt2W64/zMdShflp7zLJkVFGUyFbDPnO6SFc/8f/BMgX1Mia+vSw2PX+8WASO/b7sstm7J7xfctwXIxHW1o+Zfh2xOcxqfEY1mBocZDokMjErGvotU39R5KjdIjTf/Yps1LZaAlbqtNrhMi+OI+PYrY86TyITOdfx2UPA+kHH4Nk0kH0Pn5U4ybkqiFbX8C9lC8j5D0Xq5F/+VZ3QptXJ2YXWHdhs9a3yjW3VZfV3tTOrvdqHjm3rU+NzEPyDiLng7IWutsN1fJZ5mIDJdKpmgiGzrfsr3wd9qPw7WMAyE8cjt9Eqi36SSHlxoSwoTxtyVlNEo2RnasNlT837VP2ImdWXxFOW/qUPelnkV/TPv8JfC9iXNGg/99P1aSCy7lzrepRBsJ7QPTBNwP79r+Jbh52FfX/179u/1PmPtSk0VZCurxkE05IVZQGz51CVKH3zE5d9ZEGhP05pM2cqI4PBAuqCrv1ynzaFaO1Pby8GtYrNiJ9ST64vU3QSjOkNyfe8DmEMztw398zL27j4yRWvnCGMqV57XEfFRseucJb2acqv+DgMlqM2R1/isP7adG6LX7xGxtPGqdwbZXyH/tmLFPYMLIuXjg8Lmk3dBYGpX6po2ZayYINtFVGUcZLpwfL8TW3ZtGAWOxG17Ks9E7Pr2PbujDDel32/cR3YPPQ9sFvA/sffp//737j/aNn+4+XW57/5efpv/7MziLU48R98FWRa11gg1GdUFFxqYcmi5J5jhSAUBIz8s2DaDsxlEOw6ySDsdfliu/LfRGZ2e55dx7a1UX/6NpVZ8dP6HPsrAdzKtK9ZsOX71TeRQXj+1XiOJMJIvLwwuH758cxtlfPLCZi9TCNjd/WN8CyCSm02ypij1Sl+lXviKZTFKcWn5dtT4AMfzuWe2C1gdaDE9yc5hUDCIZmNBGXLckSkJCDH4C1/5PJj4K/5v2OLgmdBgATMRM7K5LOIjQpBeMElXtv6g8pi54Ss2GzXpzptP9vXt9o99rLBFCP+Jp/k3+Sx32fH4D8E7Ij++HPAd5mmZESdbOeI+nYMfyyP7iM/r5q6tNT5CPqjjwv+zh7tBwQEDDffo918CDwQGdwDuAcOuQcgYBAwCBjuAdwDuAeO8h6AgOHGPcob95BfbaiLX/24B07jHoCAQcAgYLgHcA/gHjjKewAChhv3KG9c/II+jV/QGEeM4yH3AAQMAgYBwz2AewD3wFHeAxAw3LhHeeMe8qsNdfGrH/fAadwDEDAIGAQM9wDuAdwDR3kPQMBw4x7ljYtf0KfxCxrjiHE85B6AgEHAIGC4B3AP4B44ynsAAoYb9yhv3EN+taEufvXjHjiNewACBgGDgOEewD2Ae+Ao7wEIGG7co7xx8Qv6NH5BYxwxjofcAxAwCBgEDPcA7gHcA0d5D0DAcOMe5Y17yK821MWvftwDp3EPQMAgYBAw3AO4B3APHOU9AAHDjXuUNy5+QZ/GL2iMI8bxkHsAAgYBg4DhHsA9gHvgKO8BCBhu3KO8cQ/51Ya6+NWPe+A07gEIGAQMAoZ7APcA7oGjvAcgYLhxj/LGxS/o0/gFjXHEOB5yD0DAIGAQMNwDuAdwDxzlPQABw417lDfuIb/aUBe/+nEPnMY9AAGDgEHAcA/gHsA9cJT3AAQMN+5R3rj4BX0av6AxjhjHQ+6BkxKwf/m7/5x+9ne/04D8u/S3f/mL9Gd/0fp3k/7riHCRnT/7y2/Tv4xc8+XLP6a/atputfef09/+yyE3qvTlr/5hho1/uEl/9jf/OBCpyGqG3S9f0n//6z9Pf/DXH9T2h/SzP/0P6Qd/3Pr3i3QzwpLs/OBPf53++8g1X37zi47tRns/fTXob/4jef/r9Ad/PO6PXPsq/fiP/0P68W8cm6YPf55+9t5dk/ugPMZ8yddS/TF+jT7+cWk3joPzhftarssMQrvleh6HSWxk7Ftj1vWl0+Yun3C+jA9YDFk8PQH77uv01fW36fsZN3wMyhT0W8JBwjMuYF++iGAUMRyCa99MvTan1f+vf/OL1BSpf/k2/Wynz/02yG4QMRK1nQLdt2d9j8GKAnArWJIQ7BIMCd5FDHe3bT7UnxyER0Rj1/lorxIxErBgm863+vwl3fy0JTqxLPZXGATBHPxIaHOhtup61I84Pu26sb99YYrXVb4SF/0BMqfNaHuan6gDTnQPTBCw79LXX/0yffu7BwI2R8A4wMfM56/+QURoPAPbJ4sy+2PiN1PAnP8tAWMBmpjtUf19rs989hE0/mUfg/GPfyNBbTwDE0FoXxPtlWt2iV+8L6NAzWmvLUj0x0JCEUWnJWDa5p/+efqDP66vJ1+V0yDjdKLQ4Ft4ECfvI9Xz343Hq/Tj3IbYzr43M8ke/1KeRbLKYr2AQsCMPz4f4kfGaQiYZmsHZ2D/cOOmIOUG7GZFzQxxhoCxeFGmKII7EDDKlhrZ135+rfPHFIPVSCDtZWC/+UUlCCISOVAGxi7Ah/LYtyhgw3M5iI/YaP7hcdCvhaIWMBEv34ZlYj/+jQpbPS2Z/XD9I4HI4hP78OVLaZP7Wk/Zar2bn1a+suhUZU1Rdu0NMk46J37mTHSX2Hb74drJDFDWvPfAp/tIYFzAfvdt+uVXX6Wv7F+e2qOsrFX+JX3/8pfpq199l777VTn/y5ffBwf4Gquv1+ZrXAZGNnK5DmKrzAZdBOzb9Fd/UQQhZxghgxlmUVSXhIKExOzJp2Rp06YTZwhYvjlbAkZtt6ZBJcsaiF1lq9V3ruOnJA+YThQB+7VOo2lgqwMqfx9mURJ8f5F+9t6eoVnwGoqAjIML8LmfVqd8dgVsQtaRhccHZZoy7AR/8ssEijKkofAW0SoZ1FBEBv3z7Td5Oht0rYmECc77X6cf//QXnAGWdjWTsmuNIdWpy/Scz6zExy8pP4vUqVTuv5tWlXuiHtMyPtmOtY/PKt6A1T73yLiA8c3VmEL87uv09XcGWsTMvps42fcvJEhuCpLPZyH8kuS8EyonYHzOX8uC+nX6rnXT52m4oTjtAsJTbn/5bfrbxjMoFra/+VZeCLGXIXJbNq047bMvOMRyKGCWUYq4TmnD+j60FewvIWA5yA7FaRdvDnp/+uv0s8azGxGgX8sLIS4w5l/+zYBeprk4YId6JehmgWrcP63A2xXDRn3u80AkW2yGQi/CR+UqTF6UBm2VDMzatH4Fds3pSxHUKLSuXd9W0wdt+6/tWSB9j31scdx1P+C8xVJ87nsvzBMwf6N/+cLZlmVKloEVR75P315/pYLnj8tghazKC9iXKJ5D22pDA/Lf5rcQpzzbksyGxSsIk4kA2fYZUEsUSh+kv3RNO2MqPOo69r1v34TM2xifQhRbq2VgLF6/SD/LbyFKYBz82g9iI8E5/GJXO+UNRQ2Q/FZfnXHV341b/ByIjmYYN/SmY/CnEr1GwPe22O9e/TqDGQjZsC3yxYRHxtUJCXNp15E+lAyM/DJB8sf+Xtl5PMjCOqwps6O3Tun6+keCxgQIWLwfd7KvYimu34/fTAETIcpTi1+VDGooMl60oiDZYPUFTKYkRRzJzvjLJK1AL21MFxbOdlTQgrhNutGmt2N9L5/LC1jM+Jz9JTKw0bfcXDDewW0gEp3AaBmYBevCbeSGd1nErsDaOu99a7cvgT4KkWZ8oR/DTIXEJtZz4u38pn5G39x1/DzM7Lg2RgS0x48Fmn3u9MmPownYTqEVEe61OWkMfbs4xnRjdQ/MEDAvSBI8vADtFjDLxizwiD3L4JrThjSNSNOHfjqx6gj9MUQBo+zJsikJ3iEjsayrYYeFi56Z7fNmHttZUsAaPofneJ0pRfa5X3f5Z2D2vMMFUHvQ7zOWENBt7OWTgyddW2cyYWw6WUG4xuz6IC9lLEben8ZxFBR9pZz8tpdNOGBb9iP+NDOREQHxWWBoj2276TgTCS9grqwEf/WD+mOMm9eNvSATxyH41eLbsT8UWxsPfJbxAoslWcwQsDqLkmdgJkDjAibTjeG/8+JnZCWDGwjYF8m8vv7VLwcvdNQggoDx23s2nbeHsHA9EwcTwKk33R7tDAKDiE7MmvrtTplCjLac/akZWOcNSOMeMgMKavn1bgqqFuj7fWA7XM+my1wAH/DZV8CireDrwHad5YjPRfR8X0gcxd9uoB8EeC/uYnuQgYU6UYC97yVTclwzQ/Uz2CrXUd1eNmR9/YM/1alWE8MGK0whFqb2t4DPx2EyQcD0zUJ6a1AzIBYpe4vwq6/T1+5twV0C9oUFqbyhaG8smgAOBcza77y84f7AioDJM7C/+gf5/Nnf/ePOZ1M568pZGw2I1P+zzpuAw5uWrjfR3HdAncC4Pg3bELsHCZi3P/YW4mQBk6Bur4r/wV+/2ilgOesKLwGYOHjBMI4iYF3R8H2iAF5lc14EWkwHgjJ4xdx8k0yRXkDhbKpqh21nQTFhbn+WvnhxlnbKueF/f+ZFTITHCRfxHGk/Cljpk2+P+tAeHx2LjkBSvV2cW+xRZvc4Pve9FyYJ2L5G97t+OCW5X/0v6QtnFJI12X/A7F97L+JkmRV9ktCYQHVWwMhBUcRFpiDrrMyfmzPtOO+mnS5g3r8irp6JZzWJvXv2Yf8Bsw+AJfj5wE1BtgTMGEhrBhLQZbrNZVIjgdlPzZVMsNhtBtZgryWaVL/40vQ523D1RwK88Q2CSTw14ynlpd1hf+jcn6effT0UarbfaZ9scx+yz45tvtcLM/G1MWYd+3R9k3PXdt0Wvtv9gc9p98KjC5hkc7uzKwzotAEFJ3DCPYB74FzugQcXsDj9SFOJEK9zudnQTwRW3AO4B5a8Bx5cwJZ0Hrbwx4B7APcA7oHzvQcgYJifx39bgnsA9wDugaO8ByBguHGP8sbFr+7z/dWNscfY2z0AAYOAQcBwD+AewD1wlPcABAw37lHeuPYLDJ/4NY574HzvAQgYBAwChnsA9wDugaO8ByBguHGP8sbFr+7z/dWNscfY2z0AAYOAQcBwD+AewD1wlPcABAw37lHeuPYLDJ/4NY574HzvAQgYBAwChnsA9wDugaO8ByBguHGP8sbFr+7z/dWNscfY2z0AAYOAQcBwD+AewD1wlPfAD/7pn3+X8A8McA/gHsA9gHvg2O6BHyT8DwRAAARAAASOkAAE7AgHDS6DAAiAAAikBAHDXQACIAACIHCUBCBgRzlscBoEQAAEQAAChnsABEAABEDgKAlAwI5y2OA0CIAACIAABAz3AAiAAAiAwFESgIAd5bDBaRAAARAAAQgY7gEQAAEQAIGjJAABO8phg9MgAAIgAAIQMNwDIAACIAACR0kAAnaUwwanQQAEQAAEIGC4B0AABEAABI6SAATsKIcNToMACIAACEDAcA+AAAiAAAgcJQEI2FEOG5wGARAAARBYQcA+pbubF+n5zav04X5pwLdpc3GRLup/V7cpvdzEcio74H8fry+jPW7zMm3fpzQ8t0nc2ogPUkfqs1vvt+ny2TZ9TCndXlV90vLRPtVtXagPiRjZsfpq9ioe1O7mpSskny4u0uU1eaX/07LM3HGlPpVrZWyCPbNRf2abxc+UyyKLYr82gu8gAALnTmBZAbt/l17f3KXPiURsJQFzAVQG7zZtTMDcORYF933fgf54vWGx8vVi2ce0fVYJAImKa9P7wMH+mQv4FLCDsJAAOIGjhkfs1eeKn07ABm2Uq1gwQvsidpuXt2njy4ONKFJewAZi6JoKh9Qnss+CFQVs44WTKr3fpkFZMIYvIAAC50xgWQHLJFcWMM0+5Nd5W8DkF70FSAnqW5dVcabAwXmTNs/oV/8m2Xk6J2IlIkXnKMPaV8C8DxLsb9P2mfoUhIHA7RYwb2+3gJHvlSDm8ZGsL2ZLdD35VtWr/CShsqwoC1gltK6Z/mFHwMgmZXs2PhCwPkKcAYFzJ3CcAqajdntFAbojYEEQJHOwwMtCkLMACpYqVFe3PD1I1wWxomDL53xWJnWCCAwCeRElC/b0acF53wwsiJyKeJ7ay9OGRayDb+FOl2vCJKv2kS4zX7lKELDSn3LdNmZsoZ2RLx0BkxoqpsjARgDiFAiAwJEKmAoOT3VNFTDLxtyg5+BM9iRbseCdBUyFgsQgl7GJeQLGImTiyf6bP1EcuHREEMczMHmO1BMw66O1TJ+hLHORaTx6LmZC6W1SHS4P/RCr+RzX7bDPouunC4nDhUzFQsD8EOEYBECgInCcAuYDLGVajWdgYbqterEhM8h2+gLmn+3sLWBkP08/ludfnDm+3P8ZWOjTQNysV5ZdNQSRL7Hzdj196g8CJ1QX9jwuMxKRs+lUrqUvcbBYuWd/3nL32LHha0ysfL+srGsEJ0AABM6ZwHEKWBixloBJQM5ThgcImG9qPwGLPtQZzuZqs+dLHNHeeAamGQ9nj1X24wXCOudEyoqycIdzkh0Z19KnyjczMvbZEzBfBwLmaeAYBECgIrCwgNkr9PQavf578y4t9za9BFCbzsqfloG5DMKCrPS3lXXo9BhPf1EArqcQD3+N3vtQgj15JAGf38bb4zV6b48FzPW3ZEaxr5wd5am60k9/H/A1dQZlQhcETN+M1CnD2Kcobt5+OGbhKlOSPIbUdqu8fqU/GMIXEACBcyewsICdO84n3n8TpSfuJtwDARAAgSkEIGBTKOEaEAABEACBJ0cAAvbkhgQOgQAIgAAITCEAAZtCCdeAAAiAAAg8OQIQsCc3JHAIBEAABEBgCgEI2BRKuAYEQAAEQODJEYCAPbkhgUMgAAIgAAJTCEDAplDCNSAAAiAAAk+OAATsyQ0JHAIBEAABEJhCAAI2hRKuAQEQAAEQeHIEIGBPbkjgEAiAAAiAwBQCELAplHANCIAACIDAkyOwvIB9vltpIV9iFxfB5RLd0oPJ8urrtlBsXIVdFrXVc27h2lBu+1DlYbLFg6udjUM7unuw7qmVFxjOC+1WdbNtHIAACIAACBxCYGEBu08f3tylz+wRHb9Irz8stxa9CNhlutSV46mZvCI6r2ZexIKFKW+0eOt2DRZRso0Zc/2aItsjEaTri936Mr9HV9xuRa5slQ1soAAEQAAEQGBvAgsLWGz//sOrVQRsS5tBahZlAmSfxYP21iF0Pu915QWwVKyOdggYZWN5e5FN2r7XLDFvZElllUl8BQEQAAEQOJjAigImGdidpGMHOyoGTJToU6YITbi8KFljrbJUZVRUv0z7tTKttoCVeqVOyLYog7u6TaHMHMMnCIAACIDAwQRWE7DPb1+k528/HexgNGACJhsr0gaP+wmYZEdhY0jfAD/bis/OasHzl/Oxm7rMYqXPyGiaMpcNKqIABEAABEDgEAKrCBiL16I7MVsXnYBRJvVsm271JQ4TMrvSnpeV6TsRrwv3Ake51o4o29pTwPTFEi9WPvODgBlbfIIACIDAsgQWFzB67vV8FfGijnsBk+xmc3WZOKPKL10IIJ7iyy9xyHOvcfGSF0LseVbB3J5CzOdduy2xapXlujgAARAAARCYTWBZAbt/l17fvCiv0fOxvZU420dXMQqYvAF4IQJWv8buxCtVr73zMy89T9lSfgbm6/CzMneOXovX8+X5F50vGVsst7rlGZnrCA5BAARAAAQOJLCsgB3oDKqDAAiAAAiAwFQCELCppHAdCIAACIDAkyIAAXtSwwFnQAAEQAAEphKAgE0lhetAAARAAASeFAEI2JMaDjgDAiAAAiAwlQAEbCopXAcCIAACIPCkCEDAntRwwBkQAAEQAIGpBCBgU0nhOhAAARAAgSdFAAL2pIYDzoAACIAACEwlAAGbSgrXgQAIgAAIPCkCELAnNRxwBgRAAARAYCoBCNhUUrgOBEAABEDgSRFYWMBkE8vntqDv4qvS65YotLAu/xsulCsL6tbltKK81SmL8speX2UxXhoZvxWKP+6PWr0Fi7W1w4feti60ur1fVNgvROzL1VdbiJi2c8n/G6kTFjbu+ZAN6QGvuB8XLuYzvh232HFdffDd13M+DBZD1nNhweU8jnHcBm2gAARA4OQJLCxgkRftC/b6w30sPOhbazV6LxR0fpNuX27yCvWD5oJA1OKzv4BR0M0bZOatVciu96v2QoQ4iI5eEkVT+8PnpI61xcE+B3/fXr+OrN5fAj+1ZfZqD/N3EhsSzty3fCaxGGYfXPnYYWXH+xBYOhu3V8VnK26V2Tl8ggAInAeBFQVMsrG7z0uCpOAchcEHQA7QFFCDSFXth3OHCtiwvrTmBaVqn792zgffhvVKgK84sCi0xajUkf3OimCJINoWMcPWqhJuoxISErcRAWORddvNkEXvj+zvVjLieK60L2JFzMq1ELDCB0cgcK4EVhCwT+nOphDfflqYaxW4bQ8wDaIUACWrGV6XHQkiMRQgnwH541zfH3QD+IhA6RRYEZJisBfA5QoRHOmf85un4zZp6zPBbNLX8dmliMHmupquzPUaBz0By1N6F8q+1KX++P3S6ExhOvRBrpWrfwsAACAASURBVLep3vJDJYiVZtehrDSJIxAAgTMisIKAFXo0hfh8UREbChMHPRaweK4rBosJWGyv9JqOOgKWLxJhiSLmRClfVw4o8JdsR6+16b1BZiP1Yh0TD+dbYFHaah61BMxfyOeL6PhT/lgEbIIPKsy3LHqS+YnASRsQME8VxyBwngRWFbD0+S49X/RFjqFoUEBkIeAAar/e9bN66YGHOATtoWhIgJWbwR8Pbo9u9kVXugA9qCgFRXjL9yhopSL5Eaf6RAB9Weag1YZ1ZPruwj+bcwJYWusc7RKwNBybliUvQny+60MZGxGraB8C1qKLMhA4LwKrCtjqL3G4X+nDjKsEQHomtrW39ELAFCHIL1NUQXpMwMbO7Rawqt2R4M8BvyHEob/sd8l+enXis0HxIYgm22k/S+O61fOs8KfixsLK2Y+6DrWR+9PwQSv7PrTEqlVm7eITBEDgPAgsLGDu+dfN0m8g0oBIwLNXx8vzlVoQZPC8yHBGws9rqhcRNGibzSxm+rzGyvnTAm8Iwv5GIdHsZIEj7XTf5qvqiC/mf2SR/R6tY1mY+li/gKF1W6IWOLhnjqXc/Co8mgJmzy2Nk/OhjFHMOEO51auFsTSLIxAAgTMhsLCAnQc1L4yH95iEqGRPh9uDBRAAARA4DwIQsPMYZ/QSBEAABE6OAATs5IYUHQIBEACB8yAAATuPcUYvQQAEQODkCEDATm5I0SEQAAEQOA8CELDzGGf0EgRAAAROjgAE7OSGFB0CARAAgfMgAAE7j3FGL0EABEDg5AhAwE5uSNEhEAABEDgPAhCw8xhn9BIEQAAETo4ABOzkhhQdAgEQAIHzIAABO49xRi9BAARA4OQIrCRgshvz85u7tOiGzGEleR0LXoB2k255NXS3kK5bJJavzIvc1ovO+gV4p69J6BeYzQvpUkO5HSxIe3J/LegQCIDAkyKwioDdf3iVnr+9S3dLC1hjny1e8ZzEigTMiRYLjH034TOxc0NA9U2A/BYe7pLBYW6Tz5AAmvD5Y135XX1obf/RKhs0hgIQAAEQAIEmgeUF7P5des3CRVurLJyB6RYnZbsPt41KJWDN/asaAhao0HnbMiWc8F+q1eM142KfKh8kS5OMT8RKsz1tAwLmueIYBEAABPYjsLCAydThHc8briNgnGmZyHhBqsSjuamkv77BKWZWjQu4iERIpyGpzYtN2l5f8q7QVF/EVYT18nqbrw1i9XLD14WyXnMoBwEQAAEQaBJYVMBk6vCTNrSSgPlpRC9a/pg9iNN5XDQmYCpGt01MvlAFjK5XITXhks/btH12odOSRexMrFgkdcrRyrx1HIMACIAACEwjsKCA2YsbL9Lzm/hPMrJpDk25yjaUtE+uUwtYS6xaZVSZxcueY+3yQLIrEy+6mvzIU4gXJl72QoefQozTjxCwXaxxHgRAAAT6BBYUsLqRtTIwFZyrTZ6e45aDgNkU3sfoVEvAuKwvXj5jMmOWcfH3UL9kXHSOn4HhJQ7Dhk8QAAEQWJTAcQoYTyNehLcOJYsqr9GXFz0sEyrnLi6srmZT9N39s7cSiXRLwFKK9fz1wQ97Vmdi5tqQ9upX+hcdWxgDARAAgZMmsKKAnTQ3dA4EQAAEQOCRCUDAHnkA0DwIgAAIgMA8AhCwedxQCwRAAARA4JEJQMAeeQDQPAiAAAiAwDwCELB53FALBEAABEDgkQlAwB55ANA8CIAACIDAPAIQsHncUAsEQAAEQOCRCUDAHnkA0DwIgAAIgMA8AhCwedxQCwRAAARA4JEJQMAeeQDQPAiAAAiAwDwCELB53FALBEAABEDgkQlAwB55ANA8CIAACIDAPAILC9hwS5VFt1Khld/dArncZSvjLVHcory6CnzEQqvFX+R9vOScX5i3rEovi/g6e7wQbzkf7eIbCIAACIDAQxNYQcBepQ/3K3XDxMqbpzISq7CdStzKxC7nfbuuNkEE815edBHZ0t2WP15v0va91ZTPVlm8At9AAARAAAQeisBxCRhvo1JtQdIRMC9GDJMEjrK3IIJx/y7bCoW2RxGxsuxM2oSAPdRtiXZAAARAYDeBFQTM7cb85l1aNhkrgkOZE+/DZZmXfeY+07U25eeOvYC5Y54yfLZNW7UbxEpFMpTldnAAAiAAAiDwGAQWFrDYhc9vX6Tnbz/FwoO+mYDdpg3tyKxTh7x55YiADaYJ7TmaCtjt9WXeHNOEMYsV2b0QscxlB/UBlUEABEAABJYgsKqApc93CwsYTeldpu3Lbdq+/Ji2V9v08eUmNQWMxImfZ5Ho1S9j0HfKzvRcfuFDpgzLFKI8S7MdlyFgS9xysAECIAACyxBYUcDkjcTXi77RIQJG2Re9YMGCcr2JU4nMRYSIha3m5KYN6ZRlXHwZZ1v9510QsBomvoMACIDA4xFYWMA+pbub8gxsWfESSCQ4/DIGfeUsyz0Lc5lWU7ysjk0hskmfodkzMxLHS546pOnD8q+cF2/w/yAAAiAAAo9FYGEBe6xuoF0QAAEQAIFzIwABO7cRR39BAARA4EQIQMBOZCDRDRAAARA4NwIQsHMbcfQXBEAABE6EAATsRAYS3QABEACBcyMAATu3EUd/QQAEQOBECEDATmQg0Q0QAAEQODcCjyZg/8t/+cOEf2Aw9x44tz9U9BcEQGBIAAIGIT3KHxLDWxklIAAC50bg0QXs3ICjv4cRsIztMCuoDQIgcAoEIGCnMIpn1AcI2BkNNroKAjsIQMB2AMLpp0UAAva0xgPegMBjElhFwO4/vErPdVHf3oK+8wORrDRvC+z6RXvDyvKTqXp79WK9ttBvXd4z7m3JIsC2FQvX0L3F2Pe8hUvPlpbrgsVcJyxCLCvpG4fQTtek9ccWKPb98r778pRsp+qW37y4si54XHzwttziy7r6v/lcPqtdtrv+p/y8buQSnAIBEDgTAosLGIvXhE0s5woYB8wc/CUgW+CcI2BUJ4tg3kPMVrqnwEptVAG9e3NQ4O5c621rIM/tdu3FtnmFfO27P06TfSR7bbHYzUGc9NdN9cHXub0att8q6yGZe9/07KEcBEDgeAksLGC0ncpd+jyBx7xA1AjAbidmCpQmZhNcIBmJAd3tvlzqRxEp5a2jvoBRsC+CpRlKlVENLLq+0Tnq3wULUNWOZmnF/sCSFlT9zZdV5Y5D3++pPkhfbVxErKi9kplBwPJA4AAEQGAPAssK2P279PrNu/Thre0J9ir19rOcJWAUqOug78r2FjBXl7OJZ9u0HYjgvgJm03MlQNN4FN8keG+uG32pBq6Ih4jA5fVWBdcJDovNJm2DQFaG8lcVDtvjzDLZEQ59v3f54NqydpiDy8B0N20IWB4gHIAACOxBYFkB+3zHz77uLAWj72/epfuGQw8tYJK9qLiYCGrgvqXNKzXIloBtTlMg7kwL2iWdT24z2HW2nGjYxpz2TMiyFRGw27R9ZpmliYZ+knhpX4rYdZwZFJsofpSNQZ9tU4uD8Gj5Pd2HyEEEjH8wKFcI2GBwUAACIDCBwLICphlYEaz+lOIsAaun/KiDbpptKD67CFAQvsjilVKc7pLaLnjvMlefd775gM2XOfGpq+XvdM2FiZd/Lid+mnjR9dT33VOI2TIfFNHrc+j7vYcPrq8iVlS3/CiAgMVxwTcQAIFpBJYVsESC5aYNl87ABoFaAq9lLPsLmJ/as7ft3BQXM+wJWB30a+AS4LOo+IxLhTKfq6vm79RG8cdnMkV8TNiKIFD1gfBkm3Ywwo6FU9sd8XuXD7klJ64tsWqVWd36c94Pn9oKvoMACJwCgYUFLKVEWZi+Qv985IWO+YFIhWPw6ra95NB+BtUfLG/Pi4Avr6Ye2Zied8935KWQ0n4tUCIqej7U63sXXmG3qU++XDOgBgc63RQwEiN7/uUzO98fPu85mK2W3z0fIjvPgUXY+SDTpkWkR0jwqfn3zS7LOA8CIHBsBJYXsIkEEIgmgsJlgQDum4ADX0DgrAlAwM56+I+v8xCw4xszeAwCaxGAgK1FFnZXIQABWwUrjILAURKAgB3lsJ2v0xCw8x179BwEagIQsJoIvj9pAhCwJz08cA4EHpQABOxBcaOxQwlAwA4liPogcDoEIGCnM5Zn0RMI2FkMMzoJApMIQMAmYcJFT4UABOypjAT8AIHHJwABe/wxgAd7EICA7QELl4LAiROAgJ34AJ9a9yBgpzai6A8IzCcAAZvPDjUfgQAE7BGgo0kQeKIEIGBPdGDgVpsABKzNBaUgcI4ElhUw3Q/seV7M98Wy+4HxCMUFZMtCsXEBWb/VyPjAentxEduyOG9dPmJRt0DhRWrD4ruVf1P3GPML8AZ7cfFiW5F/xDOhR3uf2WK6bkHhsNAwnXfnwoLCvlx3BzB7wYcOByzmu2uEcB4EQGAqgWUFrG6VBO3tp7qUv8/9Je23FDGBkcBJAmGrmosoFXFrusCFZC9fx2LhthFhe2R3qoBRuz0fvH99f+KZ2DaLjAqIPxYOU3y8TZssgmS77DVG9jIH74RnUm1n0/WhquNtt7ZOaZV5F/zx3PvG28AxCIDAaRBYUcDu04c3bm+wite8QNQQAfqlz0E9novBtWo8f411LNMImQRvojlFHLLRfOADt4iMiVu+ZPwg900uk+yFbJBQOp80S2sK0EgLZM/6Gn0tlWK5ZqssgiM+VH7zjtMqnCJWIp6WJUPACm8cgQAITCewnoCNZF/k3iwBo0CdMwjtZC7zYiSB1oJzF0euq3tePdumrQvqUo/sOrHoGqtP1D5o0G5M39U17XsRD7F1eb3VLNP1lafqNmnby6DM2OAz9ovasqnAC9ffInLi/+baxmDEB/LJjRMLbxAwdeblhrM+CNhgcFAAAiAwgcBKAkbZ14t097nvwToC1t9MUrIXPW/BVQXsloK3Ts2VgG2+x0Bvpbs+ub3qeVGpY4L0UYrIDxO2wbTebdo+s0zJREM/nVAUsSut9I+q9usLVRRvdcpw89IxyKI/7oPnXUSPnttJFiqCKT8MrKx2o/V91n3TMoQyEACBoyewjoBR9vXmXbofwTMvEFkAd4Yp2NZTiByAp2RNZM+/sFBnTdSOC96u2bFDDt4mkp0LJwkO98PEKyWeiuPncuJnneVMm0LUul1xtT4PhYa7Qj5x3/bwIY+RCRjVLeMDAevcJCgGARAYJbCCgO3OvsijeQImb96VQC0C1HuJw7KqMQIh42LBqJ9T9QSsFj9phTOLHeIVXz4Z9c69mKJvHarwBAHkDK4IAln0GY5vYTwzbPQhZ1xslbNB47/LB7EW+bXEqlXmffbHc+8bbwPHIAACp0FgeQGbkH0RuvmBSIVDp9zKcy4qd+LDQd19746Xt+dFwJdXU49sS8/7TIbbLNOY8kxJfajOFb+7jskJzcLYVhBGzYAGHKRaU8C8LZuyVJt+ys9ndmRNbGm/fH/5ZZLS39In75tnqiJsbefPKeMk/Zp/30h9/D8IgMDpEFhewCayQSCaCAqXBQK4bwIOfAGBsyYAATvr4T++zkPAjm/M4DEIrEUAArYWWdhdhQAEbBWsMAoCR0kAAnaUw3a+TkPAznfs0XMQqAk8uoBZQMLnH+YXW8BiN4v6RsZ3EACB8yMAAfsvu4MlBOXpMTq/P1X0GARAoCbwaAJWO4LvIAACIAACILAPAQjYPrRwLQiAAAiAwJMhAAF7MkMBR0AABEAABPYhAAHbhxauBQEQAAEQeDIEIGBPZijgCAiAAAiAwD4EIGD70MK1IAACIAACT4bA4gJ2/+FVen7zQv/1d2RehkC9LYfbemRyA/2FZ2X7ktZCviPG/YK5YfHdenHguMht16JfBDjYiwvjloV0u5b4RG9h3lBOi+yGRXv7Nv0iwNEH62/sp7++bKA5fTHfvic4AwIgcG4ElhWw+3fp9c1dyvtY7tiV+XDYhwsYBVTbHqTst0WeUQAuwZcD/M6gTv5YMBZhzLbZnp2b2vO+D9GfeF3f+m3aZBEUgTHRIXvF174Ff6brQ94JYOhXa+uUVplvB8cgAAIg0CKwrIClT+nupuzE/Pnti/T6w9i2li2XdpfFX/FFZKjcAvJuK3QFBVgnKpo9sQ06doIlbbprJzQQRaFqa1A/ijGf7vpQXatZ2r4C5HlFXwfONQqm+NATMCq/0I0xKZPcj2vDGRSBAAicIYGFBYwIyoaWNI14l1Ox5cjGX/0xiPqAPKlFCvyakbDdZ9u0VREsAZ3aoCxtG8VuZwNSrwiqBm3bA8uJo5iKfaGyvg9ODFl0N2m7dwYVxYX7b765zLPfzSk+xDbIVhCrlxvO+kJZv0GcAQEQAIFAYGEBE/GSrEuysWUzsDrIx+9jAiYZVPU8SwXs9voyZ1tmQ8TjlsVLRMgF7ICw/YXbG4iUXSvixhmTZk/leZD4SOf6PqgvJF5OgKdnYK59c8l/qijealmTnWWvoz70BUwEU7JnCJiHj2MQAIGpBJYVsHo35vqZ2FSvutdFwUq8I/ChU4j+hQUJ7HkK8cJNSbLQTJvq4oCfnzW1OyPi9NGdrPuWUmIhafkgfpp4kRFqc5qAad2uuLK1CdnmFB96Ahb7CgFztwEOQQAEJhNYVsBqwaoFbbJb/Qt9oPa/4qkGnStTdn0b/kyoEzKPmHHRdf6ZmDw/q8tk2s8Li2+rHJPt2tcY1OXavg9BAFlci5BT3ZqNtT3sh50pn1x3hwBbG1k0Gz7UL8JQnZZYtcqKNzgCARAAgTaBZQWMnoCF1+jdG4nt9vcvdVNul9c0xVcCNwfn/BynvCQw3oiIiUzhFVtcRzMgPjcI6FrPZzLOtzIlqFlbdW6y0HZ90AxI+1vbawqYt2WctF+B3aCvPYI9HzzTOG0b2jEf/Is0vaZQDgIgAAIVgcUFrLKPryAAAiAAAiCwCgEI2CpYYRQEQAAEQGBtAhCwtQnDPgiAAAiAwCoEIGCrYIVREAABEACBtQlAwNYmDPsgAAIgAAKrEICArYIVRkEABEAABNYmAAFbmzDsgwAIgAAIrEIAArYKVhgFARAAARBYmwAEbG3CsA8CIAACILAKAQjYKlhhFARAAARAYG0CELC1CcM+CIAACIDAKgQgYKtghVEQAAEQAIG1CSwvYLQC/c0L+ffmXVp+P2aPxK/gXi0gO2tB2moxX78A71R7Y3X8Yrp+EWDfpfp4xJ5fGLdezLc2k793ffAL81YccuXhQc8HWUxYF/J1G2T66wcLHg/NowQEQAAEugSWFbBqOxVamX7ZDS3rftQCZvt1STDOW33U1dx3Cqj5OhYLs0GCWAI5B+SdojNSJ9ieun9X3170J17nuhcPR3zoc4gm/LeuD1U7vK+ZsmttndIq8+3gGARAAARaBJYVMMq+3n4q7ZCgrZCFxV/xJjIUxE18dD+sWnAo+whlsU7YQLK6Vtos9ksn3dFIHQr2WSh5I84J27107XnhTimxYDghdi75w74PIxzMQOVLvZlo9IHslf3OvDiKWMl52zcNAmaQ8QkCILAPgeUFzAnW57cv0nP3fR/HetfGX/0+kPsgLBnYYFqtDsIU+HVqkO0+26atbopZgr1lc9sgkC3/xupQEBd/NLhfl7Zbtqisb8/1lfp0sUnbIJBti10fRjhkSzW7tMsH4UbThH4cgli93LCoh7LcIA5AAARAYJzAsgKWUmLR0mdgdx+WzsC8YFHH/HcRBnuuUrIdma6z8vK5SbcauG+vL3NmZkFexIM2zLQA7AJ2h+lYHbFLNjRjdKJh2Yv5ZgG/b099IVFxAuz73HKx68MIB6pjfpVPykTHfDDR/0h7MHM2Zr6ZWFHfLpSFlbV8RhkIgAAI9AgsLmChoXpKMZyc88ULFtX33zWgUjFnJTa16NppZhEXWbzEngoW2zDxsmm6CVOIPuMgYdBpTR+w2SMnPs7DeNj1QQTCxIsqkdCYSEQj5VvfBxGZMr0q9k1I2cKA3YgPdd8cBxErP27k+w6upQs4AgEQAIFMYEUB+5Tubl6lDwu/hugDdQzITsDsGVN43qXCVpVJVqI8WDAsmHp7msWFunXQJxsjdXzGpf7tEpwxe9T3XJ8FIgp2ZKP9G/Ghz8GxCf33U5wm8C67dM8j+QeFZootsWqVaav4AAEQAIEugYUF7D59eKOv0K8gXtwLDtYyrXV5TVN8FrijeMi0nIlRt/95ikumx8yWXq8ZEJ8bvEbfEjDL/nTaraojoqLnKjHoetj1QTOgC7EXsiV9fmZTdN523wftD9urOHgD4bjvQ2jHiRkJZZmKtOMp4xQaxhcQAAEQSAsLGIiCAAiAAAiAwMMQgIA9DGe0AgIgAAIgsDABCNjCQGEOBEAABEDgYQhAwB6GM1oBARAAARBYmAAEbGGgMAcCIAACIPAwBCBgD8MZrYAACIAACCxMAAK2MFCYAwEQAAEQeBgCELCH4YxWQAAEQAAEFiYAAVsYKMyBAAiAAAg8DAEI2MNwRisgAAIgAAILE4CALQwU5kAABEAABB6GAATsYTijFRAAARAAgYUJzBYw2/frdb3cPO3CrPuBLb2Zpe0tNVgMlhbG9Yve0oK0frFctwAw183nZAHbuKq7bKESF6O1RWdlkdvhOV2MdsQHqeMWyXUrww8WuLVFgEfsDfqbF8yNixpzu2avunnCCvR0TjllHq4sM8/sqtXodd+velHhqkn5msfDLeKby4y1fAZfmsZQCAIgcK4EZgiYrDh/91k2r4wCFrdQuf/wKj1/+2lBtrdp4wKoGNYyCvbuHIuCfXdiYSIogfY2bZ5dpku97uP1Jm2uLnkHYTrevo+uxzJZiT0E7BEfSEguqa1r2uRRxSIICwmPEzi6ZsRefU6M0v87AQv9LlfwUeMc+bh5SUy2Sb0UUcvfRfCtz9wn7c9ADKvm8lfqE9ljwYoCtjE2dvH7bRqU2Tl8ggAInD2BGQJWmFEWFgSs2sBSsrS79LlUOfDIidWFbeDoykywqBUfIKtgTcGWhUTLt7yh4se0vdom2p2ZzolY2XYhEmj3FTDvgwR72v5Fg3blkwjPuIB5e7sFjHyv7Dn6Q8Gh68m3ql7lZ2anW7Ywx0poXTP9Q7Kbs0YZLxIr4kTZHoskBKzPD2dAAAQO206lFjDKuETQJEt7/eFdurtZQcB04G6vKEB3BIwzEQ3gIQi7TIfKSfRebtLmWn/tv9w4AdOG9Lq9Bcz5YNkKfVpwvsyZDbXj/LIbcyAM7ho6p3uByadlM3TNJm2tHbMVPuWaW19mLLww0fkeu3zdNmZs3ubYMdltCJhUUTGFgI0RxDkQOHsCi2ZgImCfeFNLmmJMiaYU1xAwCnAXMhVFgV9FyE8hBkHgYFmerdgUGAdnztqiMJQMrGxQSXWWEDD2y6bQDhUwn3HmW5n6In3N/czn5MDE1BeHMi9aPXZ500wbB29Nno8VgTVxddd0BUz9p75BwBwwHIIACNQEFhWwRFOINy+SiFdKiV/oWEHAfIDtCZgPkO56CtQX9sufymsR0KzHxMpPtVmZQBQRDSJRZ0zOBy8QnDm+3Ka9MzBnb/cUohPlMOpUXguK/iAIGd0wew3scgam0341x9Bm44vvC502sfIMraxRHUUgAAIgsKyAVRkXPwN7lJc4JCDz8xkaYwqWOduRX/jdZzeVgPlbZD8Biz54AeNgfbVxPlErDcHxwZyfTdlzv+ELHsVPJ1BUvxarYFNrBT5SloU7nHPsnICl2rfiTP+oJ2C+BgTM08AxCIBARWCWgMnLGS8426KM6/nNq5TfptcsjMvfvEv3VYOHfZUAWqamdFqQfv1zsC7ThFm8qMEQhDX4k6C1grmWSbZR7EmbkpUMz2lGM+JDEDAN+Pw2HknXVdWOie2Ivbq/RaicgOVpPsu4SFQ1s3IDwf2pMyhj02MXBIyMRXFz5uMhC1fVX2q7VZ5f1Ikm8A0EQAAEiMAsAQO6IyVgonSk7sNtEAABEPAEIGCeBo5BAARAAASOhgAE7GiGCo6CAAiAAAh4AhAwTwPHIAACIAACR0MAAnY0QwVHQQAEQAAEPAEImKeBYxAAARAAgaMhAAE7mqGCoyAAAiAAAp4ABMzTwDEIgAAIgMDREICAHc1QwVEQAAEQAAFPAALmaeAYBEAABEDgaAhAwI5mqOAoCIAACICAJwAB8zRwDAIgAAIgcDQEZguYLegbdmTmbtMeYNUCv4vh0G0/bLHbekHZsPitLWArjYcFeN3CtaGcthNx52yB2ouLagHc0I7uHpwXzq0Wqq3rLsYChkAABEDgvAnMEDDZbZn2/Kp3ZC77f5GIuRXqF2Msq6lfuhXV8yrvvJp5ERoWpix0t27XYFk13fbxyvVrH9keiSBdX+zWl8kq6iKWcbsVubJVNrCBAhAAARAAgb0JzBCw0sZAwPKpdQVsS5tBaqZkAmSf2QXesqQtPHmvqzqDK5Xd0Q4Bo2xMhVLESrNE3YcLAuZQ4hAEQAAEFiRwnAL2nkTCsp7LRHt/eVEyPq2yeuNIztTyTsQtwWsLWKlX6gSxogzu6jaFMnMMnyAAAiAAAgcTOFIBk00pSbgs82qJ1bBMsqOw2aVHyM+24rOzWvD85Xzspi6zWOkzMpqmzGWDiigAARAAARA4hMDxChg9m3q2TbfXkoGZkBUY8rxs+95KdGovvKRh5+yTsq09BUx3V/Zi5YUTAmZs8QkCIAACyxI4YgGT7GZzJQLmX6YgRDzFl1/iSDzFGN8wHIKs68gV7SnEXDu/7NHOtiBgmRQOQAAEQGBRArMEzF6hf86vy/tX5u0VeirTf2/epfvFXK6yKhaPC34GRk2wANnzLCdeqXrt/YKu0fOULfF3VybuknC5c+58aMdlbLHc6pZnZIthgCEQAAEQAIE0S8DADQRAAARAAAQemwAE7LFHAO2DAAiAAAjMIgABm4UNlUAABEAABB6bAATssUcA7YMACIAACMwiAAGbhQ2VQAAEQAAEHpsABOyxRwDtgwAIzXUm/wAAIABJREFUgAAIzCIAAZuFDZVAAARAAAQemwAE7LFHAO2DAAiAAAjMIgABm4UNlUAABEAABB6bAATssUcA7YMACIAACMwiAAGbhQ2VQAAEQAAEHpsABOyxRwDtgwAIgAAIzCIwW8BsQd/XH6qlej/frbSQL/VPt0TJi+wOF8qVBXXr8mph3rzQ73D7FL8Vij/u061tWFs7fOht60ILFGf/ZN+z9mLDusK+sqDtXPL//OLF3hZd4M/1fMiG9EAXTb5wCxfzGW/LLXZcVx989/WcD4PFkPVcWHA5j3297c2gFRSAAAicOIEZAnafPrx5ke4+p0QiFgWMzt2lzwxNrovnD6XZWo3eCwWd36Tbl5u8Qv2gxSAQtfiIKJgYTBEwCrp5g0wO9BRYya73q/ZChNja8Wdjm9ofvkDqWFsc7HPw9+3169RbzlBbZs/7EI5JbEgEc9/cWTqXfXDlY4eVHe9DYOls3F4NxapV5qrgEARA4AwIzBCwQmUoYOUcHd1/eFUJXDy//zcKzlEYfADkAE0BNYhU1Uo4d6iADetLa15Qqvb5a+d88G1YrwT4igOLQluMSh3ZbqYIlgiibSszbK0q4TYqIdkhYCyyVdbm/ckZtWaJ8VxpX8SKmPltcCpfyuU4AgEQOBMCKwpYydSWY1kFbtsDTLMACoCS1Qyvyz4EkRgKkM+A/HGu7w+6AXxEoHQKrAhJMdgL4HKFCI70z/lNPlxs0tZngtmkr+OzSxGDzXU1XZnrNQ56Apan9C6UfalL/amnHQvToQ9y/XAftZBtaXYdykqTOAIBEDgjAqsJGD8je/tpYZRDYeKgxwIWz3XFYDEBi+3FjnYELF8kwhJFzIlSvq4cUOAv03V6LYnXSPYS65iAOd8Ci9JW86glYP5CPh+zY3/ajkXAJvigwnybyG/JtkTgpA0rM7v4BAEQOD8CqwgYi9eiOzHbwAxFgwIiCwEHUPv1rp/1CwxkJgTtoWhIgJX2/LF5kD+72Rdd4QJ0rhAPivBKeVdwOYCXqTO9Om2fxbLMQZuh7yZu1rIXAC5zAmjXdD93CRi/YLNbwKb7UMZGxCqOPQSsO1I4AQJnQ2BxAaPnXs9XES8akxjE5I268uu8m9G836atvaUXgrZkQvlliipIjwnY2LndAla1W/fL3X4c8BtCHASP/S7i0asTxVt8CMzYTvtZGtetnmc5N/XtxvhcSsQqlu30QY36PrTEqlUW/MEXEACBkycwS8A4w7p5UV6Xv3mV+G36+3fpdSina+ytxCVYStDNr5XngFoLgrTlRYYzEn5e0wionec4pU6V0VGgb4iKCFcnC1RxMN+zaJKrvWyuqiN1zf/IItsbrSMvcpgPZUpSx0brtkQt1yFW7pljKTe/yjg3BcyeWxpztUW1Am/HN5RbvTz2pT0cgQAInBeBWQJ2XoiGvaWAmgVjeHrPEhKikj3tWRmXgwAIgMDZEoCAne3Qo+MgAAIgcNwEIGDHPX7wHgRAAATOlgAE7GyHHh0HARAAgeMmAAE77vGD9yAAAiBwtgQgYGc79Og4CIAACBw3AQjYcY8fvAcBEACBsyUAATvboUfHQQAEQOC4CUDAjnv84D0IgAAInC0BCNjZDj06DgIgAALHTQACdtzjB+9BAARA4GwJQMDOdujRcRAAARA4bgKzBcwW9H3Nq/gaBNnE8rkt6Lv0qvRhJXltkxeg3aRbOpcXei0Lzppnspo6LbRbLzpL23bYArzT1yT0C8yGdRH9YrpYkDbjxwEIgAAILE1ghoCVnZZJxKKARfd2nY9XT/k23GeLVzynFc2rFd1ZYGylcxM+EzvXFNU3AfJbeLhLBoe5TT7jffLHuvK7+tDa/qNVNmgMBSAAAiAAAk0CMwSs2BkXqCJ0pcbhRyRMZbsPt41KJWDN/asaAhY8ovMuawrn8pdq9XjNuNinygfJ0iTjE7HSbE/bgIBlqDgAARAAgb0JrCBgn9KdTSG+/bS3QzsrWDZFF3pBqsSjuamkv77RUMysGhdwEYmQTkNSmxebtL2+ZFGl+iKuIqyX19t8bRCrlxu+LpT1mkM5CIAACIBAk8AKAlba4edki4uYm6bzouWP2QV3nbk0JmAqRrd2bfdTBYyu10zKhEs+b9P2me0XVsTOxIpF8kKetVlZtymcAAEQAAEQ6BJYVcDS57v0fOkXOXTnXnpuRVN09vyqfgYWsjPrfk/AWLymvsAh2ZWJF5nO05psx/nk2hOxitOPEDAbGHyCAAiAwP4EVhWw8Wdk+zuba5BQXG3y9ByXc5nlTzaF9zFX4QMnKPkEl/XFy2dMVscyrmLT6peMi87xMzC8xGHY8AkCIAACixKYJWA8NWjPufjzVZK36d3zr5vxNxQP6wUJRfWqvGY/9ip9edHDnpXZq/L6ycKi2VR+jV7O5awu6ZuEOuVXfI71/PWcCZo990KIvNBR+WDP0ophHIEACIAACEwkMEvAJtrGZSAAAiAAAiCwGgEI2GpoYRgEQAAEQGBNAhCwNenCNgiAAAiAwGoEIGCroYVhEAABEACBNQlAwNakC9sgAAIgAAKrEYCArYYWhkEABEAABNYkAAFbky5sgwAIgAAIrEYAArYaWhgGARAAARBYkwAEbE26sA0CIAACILAaAQjYamhhGARAAARAYE0CELA16cI2CIAACIDAagQgYKuhhWEQAAEQAIE1CcwWMFvQ97Ws4lv5KLsxP7+5S5+rMwd9pZXj3QK5bMvKqsV8L3QV+NieLgIcbPiFeW1VeVvEt158t5yPdvENBEAABEDgoQnMEDARp7vPKfW2S7n/8Co9f3uX7h5KwEiswnYqcSsTg8r7dl1tggjmvbzoIrfdysfrTdq+t5ry2SqLV+AbCIAACIDAQxGYIWDFtaaA3b9Lr1m4aGuVhTOwFPfbYk9IdBoC5sWIryOBo8zLMjYurOxpFkfbo4hYWXa2SbTTGASsjD2OQAAEQOCxCSwsYCU7S2ldAaPMiffhsszLPjNREieb8nPHXsDcMW9c+Wybtmo3iJWKZCjL7eAABEAABEDgMQgsKmAydfhJ+7GmgN2mDe3IrJkXb145ImCDaUJ7BqYCdnt9meyZmQljFqtBVvYYw4Q2QQAEQAAEagILCpi9uPEiPQ+7Nb9I9Lxsmf/RlN5l2r7cpu3Lj2l7tU0fX25SU8BInHjHY8q+6pcx6DtlZ3ouv/AhU4ZlClGepdmOy1nUlukMrIAACIAACBxAYEEBq71YIwMTAaPsi16wYEG53sSpRHZDhIiFrXbLTRvSKcu4+DLOtvrPuyBgNUx8BwEQAIHHIzBLwOwV+pJpvUrDt+nXEDB9u9BPAV64Z2Eu02qKF3GuBCzxiyGWodkzM7xG/3i3JFoGARAAgWkEZgnYNNO4CgRAAARAAATWIwABW48tLIMACIAACKxIAAK2IlyYBgEQAAEQWI8ABGw9trAMAiAAAiCwIgEI2IpwYRoEQAAEQGA9AhCw9djCMgiAAAiAwIoEIGArwoVpEAABEACB9QhAwNZjC8sgAAIgAAIrEoCArQgXpkEABEAABNYjAAFbjy0sgwAIgAAIrEgAArYiXJgGARAAARBYjwAEbD22sAwCIAACILAigdkCZgv6vg6r+A63VFluKxWjICvNX+jCvX7R3rCyvF2+89PbK4v5SjXbiqUuHzGq+4exf7boMF9utoYLB49Yk8WHbZHiYE8XNtZztuXLmC3etNNs2aduJTM4l7eYSSn5PvlyXc3fxmLog7GVFf7JNxoju758lvNj/uMcCIAACHgCMwSs7LpMIjYUsNbK9L7Jw445AOYgKqJggXOOgFGdLIJ5DzFdtT7vJzZVwChgWzCW4J1t86r3dm4qA+pfaZtFxgtO4FCum2qd7Jl//jjU90xUgHwd2whUVvWPPoi/m7RhjmL19mrIoFUWfMAXEAABEGgQmCFgxcrDCxgF9CoAUnaggXx/AavsaaZhgig9jSJSer/7KIpC1dbu6pL5ZJGy7IX6T+LoxIJFxgnxFNuVoEZfi4FYrhkVZ4I7fMjCF/stYkVlF+lCM0oIWOGNIxAAgekEVhAwtyPzm3fpfrovu6+koFhNo/n9vfYWMGePs4Vn27S90v3FsjdzBUyCfRFDDdrV1F1upnFQxENsXV5vVcCdKLDobtLWZVMNU4OiYltOcf/NN5f1Fabi/+baxmDMB993dx1ncO4HiO6mDQEbDA8KQAAEJhBYWMBii/yc7O2nWHjINyc42YwrK8E2n80HdC4/czER1Lq315cjWRwFYJftZIvjB9yey57i1SZIH6WY/MjiUQRUROY2bZ9ZmYmBfpJ4aV9qQYrt1d929ElF8VanDDcv3fWZd98HFsPcd71OXTCxEsEUrlZWe4nvIAACIDBGYFUBS5/v0vMlBaya9uKOUbA9aArxItdPPDVnYmHYXPC2oh2fLF4mkp1rJwkOC4nzh4XOphDLFBw1QW3as6lOk7k4CkwudgdFdLzQ8AVZNEWETUDpnPjwmgU3/1iohFnEiuqWHwUQMIcehyAAApMJrChg8rJHfMljsl/dC2OgpkBbAjydK1N2XRPhRKjjMo9yUU/ApG0TT7ueA/4O8ZIXHqb4WoSE7JOv1l4QQBa2Igh07UB4zEH+ERCvzaf0IPQhZ1xslcXJhHKXD2Ku7oObQtT2IGAKAh8gAAJ7EZglYPYK/fMbe95lbx5+Sne5rH5DcS+/Ri5W4dBf9l6wOMC7X/w+O+gb9PZ8YPflOv0YhEnP56kye3PRTVWyLxqwWWTKOe9337fqFfbQvmZADQ5krydgXO591sYDu9CO2VLfQ91xH8Q0cSqiFdrJY1XOj7LASRAAARBwBGYJmKuPQxAAARAAARB4FAIQsEfBjkZBAARAAAQOJQABO5Qg6oMACIAACDwKAQjYo2BHoyAAAiAAAocSgIAdShD1QQAEQAAEHoUABOxRsKNREAABEACBQwlAwA4liPogAAIgAAKPQgAC9ijY0SgIgAAIgMChBCBghxJEfRAAARAAgUchAAF7FOxoFARAAARA4FACELBDCaI+CIAACIDAoxCAgD0KdjQKAiAAAiBwKIHZAmYL+rZWm7//8CrZQr+t84c5HReQtZXRySYtFDt5kdzshLfnF/Nli7Jz8D77gekWKLydSFgUt14cuG4rOxQP/CLAwZ6uTt9ZzDcakW+ywG9ZUJh91MV5B+f8or2+T77cVsjv+OBt+nHy5ba6fstfK8MCwEYCnyAAAp7ADAGTbVLuPqdEIlYLFIvXonuAeXfjliL1tiRzBIzq5ODKYuFXj6djEp6JYsP7idnK6iKM2XZrL7PYtca32DYHfi84WUzidQ1DzSKyZ/7543CxZ5L3/JKNOL0/MhaFUzznLOb9xKRsypi1tltplblWcAgCIHAGBGYIWKEyFDDaTuUufS6XLHxEgdoEQk1TQNRAPiUYRocqe5ppxCxunjhQO1EUqraiI+1vrm90AfXvgvtP4ljEImmWZmLUNlaXRn+ir+XaWK7ZKmeCYz5E28VazUS3i8lC7K8sxyJWZLNs4gkBK3xwBALnSmBZAbt/l16/eZc+vK33CVsILwXqahqNg7eW7S1gzh5nDM+2aTuYhqTA6cRiclck2Bcx1ABse2DtCNrUTBEPsXV5vVUBdwLBortJW5dNTXGx2Jaruf/mm+tvYSr+b65tDEZ8UK7EUnZmLvy4ndx3FcT8ve15EKuXG84aQ1m7GkpBAAROnMCyAvb5jp990fQi/4++v3mX7peC6AQnm3RlJdjms/lAshcNqCaCWvf2+nIki6NAXQJwNrjjgNvrBmYTJJmKswxKgn15jicic8u7IIsQmmjoJ4mX9qUWpHH3dvRJRfE2P1d012feIz5w/dKP5PxMPM3qhO26ZNA9n02sRGRlLKysVwflIAACp09gWQHTDKwI1tJTiho0/bhQcFShGBMwX6Uck72LXN+Ca8ma6EoXvEvF0SMWLxPJzpWTBKcWAhKPPIVYptPYS/8sr9OmFbMQdMWVreWpWi8aXD+LkWZPrp/Ub57GzCJnLTbGTU9N4SBiRe2VHxIQMGOLTxA4XwLLClgiwXqVPpiCLZ2BVS8RLPUSRxYsFozqGVtXwGrxk5uIA74L6u1bS+rmdtsXqXgWf3xWFwI/C1sJ7mRuIDy5jd2CHPoQxChmjn0fqjay6GUn5CALclVefW2JVausqoavIAACJ05gloDZK/T2qvxzL1qUhd3YM7A1XuhQ4dDnNV4EOMDn5zgxQ+mPo7fnRcCXV1OPbEzP+0yGA7JNj9mnClB1zvvd901fcrA+BWHUDKjBgez1BIzLvc/aeGAX2jFb2p9Qd8SH0N8iwvajQ6ZLfXmfQvDNWNQv8/Sr4wwIgMCJEpglYCfKAt0CARAAARA4IgIQsCMaLLgKAiAAAiBQCEDACgscgQAIgAAIHBEBCNgRDRZcBQEQAAEQKAQgYIUFjkAABEAABI6IAATsiAYLroIACIAACBQCELDCAkcgAAIgAAJHRAACdkSDBVdBAARAAAQKAQhYYYEjEAABEACBIyIAATuiwYKrIAACIAAChQAErLDAEQiAAAiAwBERgIAd0WDBVRAAARAAgUJgtoDZgr6v89LzKSXdD6ws8vti2f3A2O+4gKzfhZgWfZ28SG5m4O35xXzpAlvQty7PlYcHugUKL1YbFsU1W7bI70SbflHcYM92aBZ7U/otC/xa+3Fx3sE5v2iv75Mv190B6n3MChRjGxftDW1V9krdcoTFfAsLHIEACBQCMwTsPn148yLRppUkYkHAil05IkF7+6kuPeg7B7Mc9EQULHjPETCqk0WQxcKvHk/H1MZEseHNGi1YS/DOttmOnZuKILbtV5L3x3P2LCMPyIb554+Dd55JtZ3NLh/k/CbvLcZ2q61VpoxZa+uUVlnwG19AAAROnsAMAStMxgWMhM7tDVaqHXBEAb0SAQqIKmhTgmFsvLKnmYYJolwbRSTWH/8WRaFqa7yqnHV9owLq30Xe0NKJqmZpJkZTTIvoFZbR12IhlmtGxZkgHY/4kIUv9jva0+1i8g+S0q4/ErEiO2WLHAiYJ4RjEDhPAusJ2ArZV6KgWE2j+bK9BczZo8B68WybtoNpyLkCJsG+iKEGYNvPakfQptuxBHvL5rYq4E4UWHQ3aeuyqSm3crEtV3P/zTeXcRam4v/m2sZgzAffd3ed7VOW+y7X2Q+Qnt9BrF5uOGsMZb2KKAcBEDhpAisJWJlmXJSeE5xs15WVYJvP5gPJXvS5j4mg1r0l8epmcRSAXaaRLY4fcHs5UNfXmiB9lBPkRxaP8hxPROY2bZ9ZmYmBfpJ4aV9qQapbjN939ElF8Vazvs1Ld33m3feBxTD3Xa/LDqhocX8v0/a6ZND5kurAxEpEVsbCyqpL8RUEQOCMCKwjYJR9vXmX7hcHWQfDOAU1JmBtV8jeRRavxM+wTCysBl2zn4CxeJlImpnqc5LgsJA4f1joaNpPRcC1QW1OnUKMAlM5xl8LZy8afCqLZs+H1yy49mKH/yzZaGlzCgcRK2qvjAMErDDEEQicK4EVBGyl7EtHKAZqESALjPsLmDxXsvrJZR7lhugJmLRtmZtdzwHfCYuVx8/odzznv9F15TkVC6NmNiHws7CV4E4WBsKTzfb6ky+QutaHnHGxVRYnE8pdPojF2IfSSko8/ev6F865Ly2xapW5KjgEARA4AwKzBMxeoS+vy7uXNVbLvmw0JPjbL/ssPvklB/eauAVhq9r89Pa8CPjyauqR7ej5PFVmAdm1z9NkKkAsMuWc97vplhVqFsb9Df3xU3EuS9N6PQHjcu+zXs/iaNOYoR0TQ/U91B33QUwTpyLC5T9NIHu+3Do8/Ay+mY8T6w6toQQEQOBUCMwSsFPpPPoBAiAAAiBwvAQgYMc7dvAcBEAABM6aAATsrIcfnQcBEACB4yUAATvesYPnIAACIHDWBCBgZz386DwIgAAIHC8BCNjxjh08BwEQAIGzJgABO+vhR+dBAARA4HgJQMCOd+zgOQiAAAicNQEI2FkPPzoPAiAAAsdLAAJ2vGMHz0EABEDgrAlAwM56+NF5EAABEDheAhCw4x07eA4CIAACZ01gtoDZgr6vP8RNU+4/vErNRX4XwxwXkLWV0cn8nNXobQsVWRzYL+bLFmW7lX22U+kuvlsvDly31QHkFwGuFtn1i9xOWxx4zAfPtfLN9yks5mu7RMtCv8UHb6vsomw9lIWGW4sD2xXx0/fTFnGeuhBwtIRvIAACp0RghoCV7VJIxIKA3b9Lr2/u0mcjtMKuzBzMchCVgGyBc46AUZ0sgiwWfvV4OqY2qoBu/Rt8UuC2FdYliGfbbMfODSp2CmLbfiV5fywrvE/xkey1fdjNQVz01031wdfhLWucENM5G78OhNTaOqVV1quPchAAgdMkMEPACoiBgKVP6e7mRbpTBRueL3XnHTUCMGUHKmhTgmFst7KnmUYMqFFEYv3xbxTgDxIw1zdqifonmQeJoxMszdJKWz2/qv7my6pyxyH2QTMrFqCpPkgdYxrtxQ1JszvVgYgV+ViyOQhYBQlfQeAMCSwsYERQMjSaRjQhW4wrBWr3653turK9BczV5Wzi2TZtBxnBXAGLgTvug+V3ge7TKcFebF1ebzWDcoLDYrNJ2yCWPZsqAranlmWyIxwKU6m7ubYx2OWDa8vasY0283fpl/0A6Xp95bLGlxv+UQAB69FCOQicD4GFBUzES6YVJRsLU4yHcnWBNptyZSXY5rP5QLIXfe5iIqh1b68vR7I4CsQu28kWxw+4vRyo62tNkD7KCfLDROWiTKmJgN3yLsiSwZho6CeJl/aliF3dVu+782GEgzB1DDLv6T5EFipa3N/LtL0uGXTPUxMr/pGhY2FlvTooBwEQOH0CywpYvRtz/UzsYJ4WwJ0hN80mwdad23lI9nw2JMHVprukugveO+1pDZrqM5Hs1JkkOG4qj82w0FE2oiLg2qC+755CjM4UH/ocvGhw7Syae/iQ68T26VvxYXjOSkSsqL3yQwICZnTwCQLnS2BZAasFqxa0BTjHQC2B1wRnfwGr3lxkwXDTVexvT8DqoC+d44DvhKXd5eh3+xoqpeuKP9Q/m24LgZ+FrQR3qjkQnkEj0YfAznPIGRdb5WzQhHKXD9ZkHDMrTSllQXZljcOWWLXKGlVRBAIgcMIEZgmYvULfel0+vkbv3khcDKIKh065mXiReQ7wbipuVxYkLnl7XgR8eTX1yBX1vJ8m5ICs12Y/VICqc97vUTQsJq32NQNqcCB7TQEb9cH313MwW+qD769lggMfvK06M/TnijiPMRiMK7c3re6YXZwDARA4bgKzBOy4uwzvQQAEQAAEToEABOwURhF9AAEQAIEzJAABO8NBR5dBAARA4BQIQMBOYRTRBxAAARA4QwIQsDMcdHQZBEAABE6BAATsFEYRfQABEACBMyQAATvDQUeXQQAEQOAUCEDATmEU0QcQAAEQOEMCELAzHHR0GQRAAAROgQAE7BRGEX0AARAAgTMkAAE7w0FHl0EABEDgFAhAwE5hFNEHEAABEDhDArMFzBb0Hez3RSvQ37yQf2/epfvFocZFbG1l9MGGkTtXhDfHvL24iG2xWZdb3cZnd/Fdv4gtLYw70aZfgLfqk1/kduriwLLI73Bh3lBOi+X6RXt9n3x5tYBy9MH6G/vpfb7QRYBll+kGSxSBAAiAwAiBGQImm1bSbsskYkHAqu1UaGX6cH7EkamnOADmICpBUgInHdsK5SJKRdz61slevo7Fwq8eT8dkNwbhvjVqt+eD969vIZ6JbbPIaN/9sQjtFB9v0yaLINmuN8/UDTa9E56JCpbx6vqQ60T/yWxrG5RWmXcBxyAAAiDQIjBDwIqZgYBR9vX2U7mABG3RLKwhApQdcFCP52JwLS7Fo1gnaaYxzCSmiEO0TN/IBwv29d5ew6sbJblvck6yFxJIEkrnk2Zppa2GrUYR2bO+Rl/LxbFcs1UWwSk+9ASMysumnxCwwhtHIAAC0wksL2BOsHia0X2f7lbnSgrUOYPQa3KZFyMJtBacO9ZkQ0W1x4L3bJu2LqhLvWEQ7toLJ2ofNGjbtFnOIkOl8KWIh9i6vN5qlun6yqK7SdsglsFM50vsF/fffHMZZxE58X9zbWMwxYfYBjkSxOrlhgU+lHW8RTEIgAAI1ASWFbAk04r2DOzuw8IZWBYr141cJgHWnqvU2YhkL9XGkFr39voyP/MpAdvaGAZhOzP2ye11RcoESafsyI8sHnVWdMu7IMdpUhUPEi8nwHWf+/5V7dcXqije6pTh5qVjEHhv0u2oD66etmFiJYIpWaSV1W7gOwiAAAiMEVhcwEJj9ZRiODnniwZuX5UCaD2FyAHYTbH568Mx2fMvLNRZE108DMLBROMLi1edKVbXleyqOuG/cj+KoCUWOptCLFNwVIXanCZg0sfwkoZvk48LZy80fCoLltpx/Rz6MGQnYkV1y/hAwAYDgAIQAIEJBFYUsE/p7uZV+rDwa4gxSIoAxeyEej0lSAsdspenGlkw7CUMozcMwlqzEj8p5YDvgrpZiZ/e73gmfqPrij/kqwlPEEAWtiIIZGMgPGrY24htlW+hDznjYqucDZpQ7vKhJf4tsWqVFW9wBAIgAAJtArMEzF6ht6nC51mo5A1FKV9evKQLEvxtqjCLD2dKJdiXbKXd8VLq7XkR8OXV1CNX1vN+mpCFRK/NU4LqU3Wu+F08aR5pFsb9DcKoIq3t1PaaAuZtmX9qk4WtKjN/xNbw1fv8Q2HgQ59daMfacyJtbeITBEAABHYRmCVgu4ziPAiAAAiAAAisTQACtjZh2AcBEAABEFiFAARsFawwCgIgAAIgsDYBCNjahGEfBEAABEBgFQIQsFWwwigIgAAIgMDaBCBgaxOGfRAAARAAgVUIQMBWwQqjIAACIAACaxOAgK1NGPZBAARu+meNAAAgAElEQVRAAARWIQABWwUrjIIACIAACKxNAAK2NmHYBwEQAAEQWIUABGwVrDAKAiAAAiCwNgEI2NqEYR8EQAAEQGAVAjMFjFaaf5Gai/bSLsx2bsnNLHP34yK2tjK6rHzuFtINC9/myo0Db88v5kuX2qK0dXnDjBX5RXtrH/xiun4RYKvb+hyx5xfGrRfzbZmist7CvKGcFtn1/o343fXB16k4hLZ8Ox2nfRu2iPMFFgDu0EIxCJwPgVkCdv/hVbr7LJDo+HkWqriFCp97+2lRmhzMctATgZHgTce2Gr2IUhG3vgtkL1/HYuFXj6djsjtVwOK1HKjNV2978v5dfXvB9mQfb9MmiwnZLlvJkL3MweMa8bvvA/HvjAUJW/ZB9jHbJb6t7VZaZd5tHIMACJw+gVkCFrBQxmUCVm1gKduu3CXVulBt3hcKuhYY1QIFRBaJeC4G115rsU7SrCEGVLpmooBlX6Q9yRzE3ygQmvW5QN70sGuP6jufNEtrClDTcPHP+hr9K5Viufd7ug/ehj/mVqo+lpbLkYgVjUPZxBMCVvjgCATOlcDBAuazLDp+zTtYyr5grz+8S3c3CwoYBeo66OcyL0YSaC04dwc319WptWfbtPUbXHLF6QJWgrO0f3m9zYJLYib+SCDeXDf6Ujnat+f6yqK7SdteBlXZLF9jv6itMj1XxLHv91Qf4lhwO5aVTtx4NIjVyw1niqGsdApHIAACZ0TgMAGjjMsJlAjYp/ThzQudYqQpxYcUsPIMrM5GJBvS8yaCKmC3FLw1qJaAbXdBDPRW2voUwbnlXYuLWEkGJnadLSeesvlm8d2Et29PxYPES/si135sudUoM4HtXK+ieKtTnZuXLb+n+cDcs2CRK9K2iOVl2l5bBt1wU4tMrFj8NBu2sn4tnAEBEDh1AvMFjMWr2nWZy0y8Ukr8QseCAlbvukyjk6egNKBa2aRpP6rjX1iI2YIMvgveu+4GDvyWaaXkd4X2wZfNOPHpmu3aUxEwIZ78TI1a0rpBVGoPCsu+37t9YPFyPtatsDcTMkcRK2rPZ4bVVHLLOMpAAAROmsA8AWNhqsSLMcWMi5+BrfASR8muRIDqbGdakJZxDRkXC0YdGHsCJm1b5qbW8pQhfQ/Zh8+4VERKP6T28P+LkNT2QsZFtivBHgiPGg8+DRvkEq5rwjPi95gPwUanHS/wvUuovJVttcrGbOAcCIDA6RGYIWDyfEteobdX6V3WpVkYn7eXOxblpsJBmZN7i05eeXfiw0Hdfe/64O2VX/jlFfoytWfTdWKqJWCaEapv8fr+K+xd1+iEZmE85WaiwhU0AxpwEGtNAfO2Kh9Z2Koy80tsKYeQuXV8YPaOG9u1sfC8rcxaan8G38zH+mWedlWUggAInDCBGQJ2wjTQNRAAARAAgaMhAAE7mqGCoyAAAiAAAp4ABMzTwDEIgAAIgMDREICAHc1QwVEQAAEQAAFPAALmaeAYBEAABEDgaAhAwI5mqOAoCIAACICAJwAB8zRwDAIgAAIgcDQEIGBHM1RwFARAAARAwBOAgHkaOAYBEAABEDgaAhCwoxkqOAoCIAACIOAJQMA8DRyDAAiAAAgcDQEI2NEMFRwFARAAARDwBGYKGK06bwv51qvS27m63Dd7yHFcQLas6O4XiS079+5uydvzi/lSTbNZl49Y9QvmhsV3zZYtcjvRpl8YN9jT1e51cVvbQ2zEMz7VW5g3lJNNv2iv75MvtxX3mz5Yf4f9DG1V9lr+YzHfFhWUgQAIzBIw2rjy7rPA4x2ZbdX5vP8Xidg6Aha3A5Eg2dtOpYhbf6DJXr7Or2Cfj6mNYRBuWyQxtBXWRRiz7dZeZm0jrjS2zYFfA74/FqGd4uNt2mQR9Oxkpfziq3Mhc5Ayz6vrQ64T/WcLJIbZBxHhXeLb2jqlVea8xiEIgMAZEJglYIELiZYJWD6xloBRQDSB0MYoIHJQj+dicM2OVQexjm1dEgNqIwhXVnpfyYciClVbvUq+PPdNCiUTof6TODrBYsFwQuxtjByTPetr9LVUiuWarbIATfFhyC7a8xuSljbrIxErslUyawhYTQnfQeD8CBwsYJyBDTatXEnAKFC7X+88XLnMC4QEWgvO3WHNdXWvrmfbtHVBXeoNg3DXXjhR+6ABWKfbwhRdqFe+lGAvti6vtyrgrq88vbdJ2yCWxUb/KPaL2uI9x9i/Io5F5MT/zbWNwRQfYhvkC7eTpw2lX7tYBLF6ueEfBaGs30mcAQEQOGEChwkYb155l3Q20WF6LAGz50vDbESyFz1vIqgCdkvBW4NqCdjWnWEQtjNjn9xeDtT1lSZIH+UE+WHC5jbpFAG7TdtnlimZaOinm44rYle31fpetV9foqJ4q8+4Ni8dgyz6U3xw9XIbKlomlNeWQecLBgcmViKyIq5WNrgYBSAAAmdDYL6AsXj1nnOtJGCt50h5mk0DKg0dB+CSRfRHk+r4FxYkuMbMrRWE+xbpDIuXiWTn0kmCw/0w8UopsdDZFGKZTrM2y3Rlp1EuVgHpiitby1O1XjS4OvmUpxB3+bCb3RQOIlbkdxlTCNjYGOMcCJwHgXkCxi9r9MSLwK0lYCIOJVCLAIng0LE9H5sSpGWAQ8bFgmE27AboBWFp2zI3u5oD/g7xsrcbo1CaBf/p+6TCqMITAj8LWwnuZGEgPGp2PDOUi0IfcsbFVjkbNP67fNj5ckkWZHWu89ESq1ZZpzqKQQAETpTADAG7Tx/e2Cv05VPeSiThKmXP6XjwgsehJFU4dMqtiEAM9iVb2dWet+dFwJdXU49sUs/7TIYDcpnGlGdKKojVueL3Dv80C2NbQRhVpAccxF5TwLwtrWdvBLKwVWXmmdjSfvn+8sskpb+lT2Ps/Ln6x4K1GD+Db+Zj/rESr8U3EACB8yEwQ8DOBw56CgIgAAIg8HQJQMCe7tjAMxAAARAAgRECELARODgFAiAAAiDwdAlAwJ7u2MAzEAABEACBEQIQsBE4OAUCIAACIPB0CUDAnu7YwDMQAAEQAIERAhCwETg4BQIgAAIg8HQJQMCe7tjAMxAAARAAgRECELARODgFAiAAAiDwdAlAwJ7u2MAzEAABEACBEQIQsBE4OAUCIAACIPB0CUDAnu7YwDMQAAEQAIERAjMFzC/aW61Kz9us6IK+iy/kSz2Ji9jayui2wnvelDEsfDtCINjzi/lSHVt4ti4fsecXzA0+mC1b/HaiTb8IcLCnq9N3FvPtedhbmDeUk02/aK/vky+3rWOaPlh/h/0MbVX2Wn5jMd8WFZSBAAjMEjDahVlWn0+Jd2TOQkUr1dsGl7Jq/esP94tSjtuBSJCUVdDp2FY3F5Er4tZ3gezl6/z2HvmY7A6DcNsitdvzwfvXrj0sjW1z4NeA7493bluSDd+mTRZBsl32GiN7mUO+3u9BJoWeV9eHMXYkhtkHEeGyir1vuBy3tk5plZUaOAIBEDgHArMELIChvcGygIUzLG7LClhDBCggclCP52JwjX6Vb7GObIRZgrpcR9dMFbBimY6iKFRtxUvb33Lf5LRkIiSQJJTOJ83SmgLUtsylZM/EI/paKsVyzX5ZgKb4MGQX7enmozuyMBErslU20ISAlTHCEQicK4GDBYwzsLefGvwkA7NMrXHB/kUUqN2vdzaQy7xASKC14NxtKNfVDSCfbdPWBXWpNwzCXXvhRO2DBmCdbgtTdKFe+VKCvdi6vN5qlun6ytN7m7TtZVDFXHUU+0Vt5elXJ9hF5MT/zbWNwRQfYhvkALeTBUv6tYtFEKuXG84UQ1nVM3wFARA4DwKHCRg/77Ipwwjs89sX6XlT2OJ1e31zgpPr5TIJsBaE62xEshd9/mQiqHVvKXhrUC0B21oYBmE7M/bJ7eVAXV9pgvRRTpAfJmyDab1b3gU5TpOqeLjpuCJ2dVut71X79SUqirf6jGvz0jEIvDfpdtQHVy+3oaLF/b1M22vLoPMFgwMTKxFZyTytbHAxCkAABM6GwHwBY/GqXuBQbCxenWnFw8hq4PZGKICyULhzHIDdFJu/PhxTHf/CggTXmLm1gnAwMvjC4mUiOTgrBZMEh/tRpvnKLtMqAq4NarMW7XbTWrcrrlSrsPSiwfayYE3xYTe7KRxErKi9MqYQsPboohQEzonAPAGj5143bfGKL3UsjzIGahGgmJ1Qm1OCtPhG9rJgsWDYSxjmey8IS9uWudnVHPCdsFh5/PR+xzPxG11X/GFhVOEJgZ8zuBLcycZAeNSwtxHbKt9CH3LGxVY5GzSh3OXDzpdL2O/Sv+JBPGqJVass1sI3EACBUycwQ8Dk2dbzG31VXj/5WRcLWyx/ftOeYpwPVoVDp9yy+LisgW1PDI7lVXmaXvQiENvhqckgTHreZzLcpr0mb58aoKtzxe8dJDQLG7avIj3gIPaaAuZtaT17I5CFrSozz8SW9sf3134oDHwYY+fP7RYv8iH4Zj46YTc/8QkCIHBeBGYI2HkBQm9BAARAAASeJgEI2NMcF3gFAiAAAiCwgwAEbAcgnAYBEAABEHiaBCBgT3Nc4BUIgAAIgMAOAhCwHYBwGgRAAARA4GkSgIA9zXGBVyAAAiAAAjsIQMB2AMJpEAABEACBp0kAAvY0xwVegQAIgAAI7CAAAdsBCKdBAARAAASeJgEI2NMcF3gFAiAAAiCwgwAEbAcgnAYBEAABEHiaBCBgT3Nc4BUIgAAIgMAOAjMF7FO6y4v5+lXpq4V+V9hSJSwsSwu72uKy9UK1Vs4A/AKyY4v2+sV8U5LtS+j64aKztsCsrcyeOedFe4d1bMdnW0A313GL4g4W+W3aq/vTWmi3WMcRCIAACJwigVkCRlum2E7LY9un0L5grz/cL8otbOHBK9DrdigkYE604rYhFPAbgqLCkUWDxCKsOK+uszj26w9EjKp165Tdn3U7S8dHhCn7485Ee7dp4/oql7XKvAEcgwAIgMBpEZglYAEBbaHSzLQkGzOhC3UO+BIFTLbaYAGpBKxs/kiN9QSsLo+bJno3SRCbwtITvbybsbdix/12WKgG4iT1ig8qViyStpElBMzo4hMEQOA8CBwsYJyBvf3kaLnpxVDuLjngMAoYCZBO+9UCxqJlU4KS2fCeWn7aMVxjWZPV8U7K3ltNAaN2W1lbnd15c3W77hxPkTYFzPsQxer2inyOZc4kDkEABEDgJAkcJmCf79LYhpU0hfh8YRHjAJ83NXRZ0aiA+bETIcjTfprFsLhdbcO29VTLnnUNRCo/m3I+aDPdOu5Zl5/u5GrZj6GADu2ZWElfxDcr833FMQiAAAicLoH5Asbi5V/gaECia5rTi41rJxbFDMxVqgWMBab13EqeQWUBcyb6U43hoifwRcUqTF9CwJ7AwMAFEACBByQwT8DoudfNDvFKKa3/EocjFQSsyrLcZSJSw6yJLqFMJwrbiB3OmFoCOVKHpw7bbXNmOTIVGf1qiVWrLHQcX0AABEDgpAjMELDqVXl9nV5e1nDPv26WfwORyI9mYG5qMQR8N91HU4X+WZafkgx1eJhHxOixBcz1dfhs76TuUXQGBEAABJoEZghY0w4KQQAEQAAEQOBBCUDAHhQ3GgMBEAABEFiKAARsKZKwAwIgAAIg8KAEIGAPihuNgQAIgAAILEUAArYUSdgBARAAARB4UAIQsAfFjcZAAARAAASWIgABW4ok7IAACIAACDwoAQjYg+JGYyAAAiAAAksRgIAtRRJ2QAAEQAAEHpQABOxBcaMxEAABEACBpQhAwJYiCTsgAAIgAAIPSgAC9qC40RgIgAAIgMBSBGYKmF+0t7UqvS34e5c+L+Up26k2prQFbWkDSF5c9yI1F7YN247oHl+8aaTYy4v46qK/tNivX+Q327TNM0f6RCva+8WCw6Xex7xpZatPwz3Bgp38xdeNK+N7/3P/qN7iPhSb3XbqVfabPpBzsniy8PYMfD8vUr2XWt4vzS/U7Nuw+6T2I3MsB54b+5HHya5RX7Ktyjdra1DP6uMTBEBgKQKzBIx2YZbV51PiHZmrPb9kl+a7dHezgoANAoNuI0IBy53joGbfvYCF627T5tllutTrPl5v0ubqkgWIjrfvI+ZWWbxCxLEpYCyORWSGW7eYJQqI5TorHX7SdT7Ilys4CFvfS3FKi/tAxsUP4lYEjITI+lCt6D/iQ2BSXVe6IfaMcexrnwkLd4tJMcxHZK/0ozppW+5cbdKlF7CBXWxtMySHEhBYnsAsAQtu0N5gXsB4rzASLsrSVhIw/XUtgaYtYCFYUzDkgFOJg5ZvryjYfkzbq2261QAmYmUZgQTjQwQsBka1m4NgIRqvK+X1Uf+6qo+uYqxzuA9k2kQn2naNVlvgxOu8D5XfOsYmVMWiFymq70ScRa/e041qVtcVY4Oj6F91mnyiMcv3E51399+FtQ0Bq8jhKwisQuBgAZNs65M6J1OHZW+wlQRMW7u9ouDlAkj4JewCXRYqF+zIBpVTnZebtLneps31Rz4mYQxipdeFss5wUEAfBl2fmZFfF9xe+RVvxqogbsWNT27nepsu6ymr3FebTi19Lr4t4wNnNSrC/cAvImVMuj6o3x9V8Egotp4lnde+lgzJ8WLB26RtK4Oic+HeaADVIupHe8qY2lKWztcsYFo/3JP9ZnAGBEBgAQKHCdjnu/TcZVlRzFbMwOxZiWVVKkIxSFUBh4NfCebMjgIRBzZ37csNTyFlsXKZQC4bAV8CdLxIyl07IQjKtRw8JwVan7lQXScSzl+2St9VZJb1wfWlyrJ8z6lNPy5dH5QHZcB2vVzrrZW+5uybpltdH4dC6tjUpnZ9Z5aSfZMvWTjD2Fm25cfEynY1gPMgAAKHEJgvYCxe/gUOe3HjRXquuzTbpz0vO8RRqauBoRVAKNj44E/X2LMku96XkUH67utQmdoxsfJB1MrG+uGv99fJL3snoC7oynVREHzd1nHdTg7c1tdciezaFChlFwv5wMHdsjz3qWJJzZOPJp7mTp8D+enFri88bIPHzYuGtEBtZqGhogFn82TKp7FT3yzbzZ/EcuSenNIErgEBEJhNYJ6A8XMuL16t9tfMwHx7GkBUeOSMBLYcyFxQ5+BnQTbUUZta1hKrVpn3hI5rYcnnnQ+WMWX/bNqsFlOtPAj6g+t9sKdg2xGpA3xgMbIfBLlT5YB8HPTHOJfL5EdDLo/jFNjRODTb832Vt0Vzu9Q/33efmXof9HhKn2oB5qqBYyvbapU1HEARCIDAQQRmCFg70xpmWSsJWP716371U+DngFfKclAjPCHguMxgVMD8sxCz64Shg12Col0fMxARIj0XxKoSncp2S8DoEt/WoL+Zk2RfZnKuD1OCffaBhcQxYF+KH+M+WD3HurJnz9OkTyJo9twqnKPxzWJpBMpnq0+eabduuJ862VkY39ImjkAABJYjMEPAlmsclkAABEAABEBgLgEI2FxyqAcCIAACIPCoBCBgj4ofjYMACIAACMwlAAGbSw71QAAEQAAEHpUABOxR8aNxEAABEACBuQQgYHPJoR4IgAAIgMCjEoCAPSp+NA4CIAACIDCXAARsLjnUAwEQAAEQeFQCELBHxY/GQQAEQAAE5hKAgM0lh3ogAAIgAAKPSgAC9qj40TgIgAAIgMBcAhCwueRQDwRAAARA4FEJzBQwWqjXtk3xq9IPF/odLvJ7SH/jwq1ha5CxleBzk7rwamOBV1tgNiwGm+sND/yir6GOX3i20Q5vgEiL27pz1rYtSBu2hRk2LSXV4sXenuxGrYviuna4oq8XFpz1bN1CurTjcF4Y2G934hxTm3kx33zKbJaFfPOpwUHVDrdpftTnrHxgJBaMjUU+N8U3MjvuQ+t+GIxr6FN0Fd9AAAT2JzBLwGjjShMm3sTyzbt0z22TgHlB29+h8RoUEF3w4iBUvlMQCWJSGaPzl1ebNNgJme1s0mZHfTPHgSkHfwps5oM/lq0+ajFq+UD2hsHfWut8kmhkH/w1Iz5oP2/1cvaFdqFW8c8+VNcV6yJIkbG0t7ka9kE4bfJ+ZMXOlCOya+Lij6fUpWtGOBA7EvZuP1tt9H3o3Q+t7XdaZa3WUAYCILCbwCwBC2Zpb7DHErAq8I4KmA9aISspQXm0fu50S0R1E8VKVMhe2NOq48OiAjbiQ2xH+i2ZWxWcycZF68dAFAVCYiIYbesWNixAle3Mcfwg2pthY4RDbnkRAevfDyJWylnFGAKW6eMABA4mcLCAcQb29pM6Uk0hZmE72E81UAWLamPHvgC5wEtBywkYBUrLZPr1vf8umHKg36StZlAl6ErQurzeVlmEZmotH/I0nWVzvs3GsYqMTTtaVjTmQ+kf9eEiba6VhfOHeTzbpq3PRjnQy5RkztLIJfJBWZZ26YT0X3xyvBrdaBfVdcRf66uNV7uulBZ/WmOhNblfluWNWaNzPR+cr4P7YZO2711bV7cJAraLM86DwHQChwnY57v0/OYufe609/nti/Q8i1vnor2K5wmYZQnclAvW8qyoBLAS4Mec0oDVCN4SNG/T9pllLyW4dX2om9IgaNN89enmdw7EIny7fNi8JJ8qIVUmtzvF3MSAph2dHf0hYeJGPhSRKQyavjcKY/36Au8DnSP7tgmmZsLZn/ZYZIt7CViulQVa+qv9a94PKmA8pnJPQMA8RxyDwGEE5gsYi9eO5110zcoC5oWhLUAxwOVf8ReX6ac/be263HlRIXOWAGqZBxVnH1yg4stzgOz7kH+hZ/saEPP3KQdO2Ls+6DM5Ey8ym4Ou+pefqUkfLavzHmRx0XYKT3tp5Kfp/3pWBMWfb9nztuWYfBnPQkWk5dndsL6WjHDIdfL45JLJB8WH/v1gYuXvSyub3BAuBAEQ6BKYJ2D03Otmh3glmU58/UFe7+h6sNcJF6ipHgepPTMozTZa4c8HGnOLA3YVUEvwsmc9FnCj+JC9komYRa3jpjHdmcTtVedaPvg6kcOID6HvEngtawp9r7iWtsaFzWyV6+ko+mPnmE1+ScNK2y++lLNmzzLceCZ+i+02x6InYFxesrlod+hD735oiVWrbGgfJSAAAlMIzBCw6jmXvk4vbyX61+tfpGXFi7qjv3bzlFERLzorQdH9+q+EgIGEIB4RhSCup9riEf0ImYXPTFrtk93Kh+B3o07LBymzvkYOImiWEW2TF+tQL2dc5BQFfLNngmwCbeV94SC7hwsY+eDatuFRQbFsLvC2a1qfvbGo7LFdz0LPh/5UdaIP7fshsG6xbfmMMhAAgckEZgjYZNu4EARAAARAAARWIwABWw0tDIMACIAACKxJAAK2Jl3YBgEQAAEQWI0ABGw1tDAMAiAAAiCwJgEI2Jp0YRsEQAAEQGA1AhCw1dDCMAiAAAiAwJoEIGBr0oVtEAABEACB1QhAwFZDC8MgAAIgAAJrEoCArUkXtkEABEAABFYjAAFbDS0MgwAIgAAIrEkAArYmXdgGARAAARBYjQAEbDW0MAwCIAACILAmgZkC5hftHa5Kz5tc6iK/yy/o28fRWow3X+0Xds0Lt/oFbG3B2sZistmIP/B1bTHduKgrLRIbFn1d3Adbkb9aOd23Uy8O7M9lDtQv77tn4Ps5XF3fL0Sc++rbsEVsaz88Sj0eLH4b/KOL1Jdsq/LN2hrUazSGIhAAgaMnMEvASKBk9fmUWKzczstxh+aH5dMVMF5J3ETG7d81cI8CYrlucDoX0HU+yNsJEoFWua3qXmyTr2G1czPR2X4knw4H4sfmyq8ETz5YOyJKuZ0RDsGf6rrSpNgzoWLByWLRY6Iim68r1uqj/or2ciX7eLVxO2rfps3AbqusbgnfQQAEToHALAELHae9wbKAUWbW36E51FvhS0/AYmCUIOw3pDRX4nVWOvzsX0e22wIW6xzuA3llohNtR3/9OX+cMy7OZirh1gzKhKpY9CJV9VW3G8limStV1+Xy4UH0rzpPPpGv1I7PwEjA1F9pGwJWkcNXEDhZAgcLWMi4VMw+vH2RnvMU4nB6cU2SPQEr5RSAL9Lm2gdB86gK4lbc+GR7ZGMwZaXCZOU50IrYiCAs4wMHbbXfD/zijwlRl4MTBbJFQrH9/9s7mxy5jR4MH6pPNJjDDLR3TtCYSzjwrrP7YGRr7xLYO2frrT7wt0iqSt2jbjnR4A3gjFQ/LNYjga8oNapewutPFSd6JdoEKvBiAZnmc29PMKpbZEkdqPQSk8Y2dinDpbH0wSD4yq8Ug+3LC7WBgPXpohQE3h+B+wTsny/zx5hx8fknf70407lnZ/vDawE6jyXloyAobTl4hmCYLcQzFSkXpywSsSWNa8H7sT6EuWjgb8LSPIjjU+nQBxWFCwmIMpC2zZYcyVw906HXrZYZdf0Ys6mWF+cqipeQaXKbroDFawIBW7BEAQi8UwLbBYzFqmRY6XUiEfu1rxT7Qdee7MOrvRB05bpmQbh2res4wwwoZB+SXTzIBw7u9qOT8NdFVcSqviYd+0Dzb2Jrrxctc4s8mtBH0VCK9bvegnO0dO2YfKJveeqbZ2Y235BtdUXtmn3UgwAIHJ3ANgEjofq9iBeTIMEK5f+RDGxOAS5mEXL5WlBeXs5F0LdXXZ6tjbKMMs6DfYieko8xA2Ofg5h52xUfkiizQNoPQbw3zXw+P7dXi2lcsm2v+bhLbhut0DGNd1r5wcxtc+hlW72yOjrOQQAE3gOBDQL2c/72p33jan/tV4kzi5uV/9ofdEhQtCf0k3z016vEAdGe4l18qHI9+5J+IXNSe3GsJh45W2jl0unRPqgr/O3Ix2IhCQx4zk2M1n2wfmG+xV7OykSk7LtVqruSffUELDKt2aPNNT+MZN7mh70G9T44AAEQeJcENgjYu+SASYEACIAACByMAATsYBcM7oIACIAACAgBCBjuBBAAARAAgUMSgIAd8rLBaRAAARAAAQgY7gEQAAEQAIFDEoCAHfKywWkQAF02vnEAACAASURBVAEQAAEIGO4BEAABEACBQxKAgB3yssFpEAABEAABCBjuARAAARAAgUMSgIAd8rLBaRAAARAAAQgY7gEQAAEQAIFDEoCAHfKywWkQAAEQAIGNAkarztuCvWX1eS/X+ofuB5YXjz2l1c9tv6u1i6qLv3ZWardFbtOCtCum4sKzqU9c/LYzjiwevLLQcNrWZMWBuqVKHGvNh9gvLWoc2YbFfOt2JqmP+qc2fUFhd9tstsWEvWpx0FuY1/yodVa+MJIL1jh43S2+kdl1H3r3g91TvsgwL6x8o+95JjgDARDoENgkYLQLs60+zzsyj0SKtlP5+qMz7NYiCoghAHAQaucURJKYlGGo/ullClvSawO2M83Tlf5mjgOTB3IKbOZDPNZ9yLyd9O75QPaWwd9GG/wl0Si2dYTgT/FB50mbRNJ/7Mvr98Uxr/je3epEBCkzljlPL8s5CKdJ9/WSMW//P9k1cYnHt1pYuRbEjgS/8Fi3PPZhdD98f53m89/Zaq8st8AZCIDArQQ2CVgyvtjE0mpp25WQnVnxXX+LgHWCcA6uYbAYtGK2Eva4uiaAYq34wEHwJAJURIXspT2vBj48VMBWfMjjiBjJtiUlOJONU+9hIIsC8TARzLbnuYlgsR0uydphtrfBxgoHH/chAja+H0SslLOKMQTM6eMABO4mcLeAcQbWy7Ienn3RXEuwKJtLjgUoBF4KWkHAKFBaJjPuHzmHYMqBfprPmkG1oCtB6+n1XLIIzdR6PtheZZ7NxTE7xyoy9nrKhHvNhzY/msNpnl6VRfCHeTyf53PMRjnQy15hKVMkH5RlG9eukwlg4NWZRr+o9hF/ba52vfp9pbT507sW2pPnZVnemjWqG/kQfF3cDyEDo7FeLjME7Bpn1IPA7QTuEzASqd97m1bKppf2mvF2d6613CZgliWw9RCsW5Yg47YAv+aHBqxO8JageQm7FrfgNvShDqVB0F7z1eruOQdiEcdrPkx/kE9FSJXJ5aqYmxjQa8dgRx8kTNzIhyYyjUHX905h7l8bRB+ojuzbRpyaCbs//WvhFpnbrQLmvfRBysbS+XXvBxUwvqYi6BCwyBHHIHAfge0CxuI1eEVIdaPvYnf5uxSwKAx9AcoBzp/iT0/zhw9P/KqslWkg7H5bMsclgFrmQaXuQwhU3NoD5NiH+o1EAvJbg2rgMvRBv4eZeJGDHnTVP5+3zNGyOps5/XVx0XEW7J4/zL89N0GJ9T170bYcky/2TXFZaz6YWPZb6Nzia1C/FqFHryxUrx3KgwIJ+fh+MLGK96WVrdlGHQiAwG0EtgkYfff6fSBe817ZF00oBGo65SDagn0MFMPpU9AKrxBju15/DtgloLbgZd96LOBS8M3+tEwkjLTiA49X/Ov5EKwVDis+pHEl8JoQpLkXrm2sdWEzW609HWV/rI7GS98HtYLn6kJqreNfsmevJ2N5Pc7j8njV7kjAuNwyrGqXzrMPo/uhJ1a9st4IKAMBELhOYIOAiUB9LD+X99eFu2VfNBl92vVXRk0sqFaCYnj6L0LAOFIQz4BSENeqvnhkP1JmETOT3vhkt/iQ/O706fkgZTbXzEGEXeuKvdQvBXQJypIxmSCbQNs4Y+Egu/cLGPkQxrbLo4Ji2VzibW16f0fXothju5GF1qf5lD7Zh/79kFj7PduZX893lIEACFwlsEHArtpEAxAAARAAARDYnQAEbHfEGAAEQAAEQGAPAhCwPajCJgiAAAiAwO4EIGC7I8YAIAACIAACexCAgO1BFTZBAARAAAR2JwAB2x0xBgABEAABENiDAARsD6qwCQIgAAIgsDsBCNjuiDEACIAACIDAHgQgYHtQhU0QAAEQAIHdCUDAdkeMAUAABEAABPYgAAHbgypsggAIgAAI7E4AArY7YgwAAiAAAiCwB4GNAvZj/uKL+eZV6XmDy0HdHhOINnuL8Xp9XNjVF26NC9jagrW3LrYa++bFdOMirmlB2If7YCvyl5XT4zhlMd+00K9zIEpxQdrIIM7zFPb5ErJxIWJf4DaOb4vYVj/8wrSDyG2xwC43U1/cVvHNxkrzavZxBAIg8L4IbBIwEilbfZ4Fy/b+4m1WwgaXtDJ9b7fmnRgOBYxXEm8iQ+2SsLg/FBBbOy9eHFC7GORbAw7CvQD6cB9oTPFjeokrwZMQ2RxElHyuKz4kJqVdmF3YrDPsDcYNxkxYNHtMmmE+Inbua6mjU/bxZQrb4VzmaWG3V9YxhiIQAIHDE9gkYGnWJFomYLNkZiZu/3z9NH/+9jM13/NkJGA5MGqm4U/xzaPcrpXXo3G7sQDmPvf7QD6Z6GTb2dtYF48942IOxW/NoDyjcpNRpGgOQcRZ9HoPBqWd21oeZP9KPflEvtI4fu1UrNRfET8IWCGHUxB4twTuFjDOwFKW1fYLMyH7VfRGAtbKKQCf5uk1BkHzrgRxK+78ZXtko76y0uB65s0a6ZVkC/CP9oGzGg3k48AvQmlCNPQhiALZIqGgOVg/3r9M59oypMCLBWSaz70MiuoWWVIHKr3EpLGNaWBnmSbvXh185fJg+/JCvCFgfbooBYH3R+A+AaNXhL+HV4a6G7NkXZKN/RcyMAncIXtIQVAuKgfPEAzHl7pmT0EkNBPwwE/nKjKP9SHMRQN/E5bmOY0ZxWPog/K4kIAoA2nbbCklfoXomQ69bg1zXAppYFNNXTtnlvIqlHzx+aVrZ2IVr4mVXRsA9SAAAkcnsF3AWLzyDzjmuhtz/Sa2M61+0LUn+5YNxexFXMqCcM3NOo4H7hRcyUrLUiS7eJAPKpQtW1nuvkw+mnjafMY+kJ9R7MbCwzZY5KJoKMUoNFQUxM18uP2vsVPfPDOLP7ZRsUrcIWC3M0ZLEDg2gW0CxsJUxIs4VMGqgrYzqyosPlwKcBJ4/YneXl0Nsq9F0F+0j8Gegu1ApB7sg8+tk4Gxz/6dKLRc8SGxC9lP6E0jLX7E4RzJdpx7aZvtyPe708oPZm6bQ0+semV1dJyDAAi8BwIbBKx94/roP5f/lH+V6OXx9eL+uDjriE/qIYiLEOnTexKrIjrFzZ6AUZM4lgdxquBAblmC/RpQjD7aB3OV7LoPafylH+s+WPsgwsWevx7lwTULU+ap7kr2Jfwyn8i0Zo82V+br13WQnaXr6z1xAAIg8M4IbBCwd0YA0wEBEAABEDgkAQjYIS8bnAYBEAABEICA4R4AARAAARA4JAEI2CEvG5wGARAAARCAgOEeAAEQAAEQOCQBCNghLxucBgEQAAEQgIDhHgABEAABEDgkAQjYIS8bnAYBEAABEICA4R4AARAAARA4JAEI2CEvG5wGARAAARCAgOEeAAEQAAEQOCQBCNghLxucBgEQAAEQ2ChgsteXLOZbVqXnbVY+zVznOzU/CnRePDZuGEkj0GKwaUHZxbC6+KsvBtsa2CK36/1b+7jwbOoTF7/tjCNbrOStTmxs3x7llsVo65Yqcaw1H2K/NE5kGxbz5S1hbJHfuOVKY8HbppzCnl1eZTbzor1enQ56C/OaH7XOypOB5ckaB6+7xTcyve5D735YXFde9PhG35ezQQkIgEAhsEnAaBdm222Zd2Q2oSrbqVDdYze0pIAYAgAHoXZ+TcCo/ullClvSKw22M83TVQGU9hyYPPhTYDMf4rHuQ+btpG/PB7Lnq8mXCzQ8JSEqtnWE4E/xQed5UaPsy+t3PovHsqJ+L7CLICXB5sD+NE8vyzkIp2meVrZNGc4v7KUW91Ubt681K9fCVsovPKqFfE72ekwKY+VBu0d/f51m3kU6GOqVhWocggAIvIHAJgFL9km0TMAo+/r6o1XHulZ6x1ERMM26LPhTEM7BNQwVg1bMVsK+Vav93VTxgYOgZh9FVMhe2vNq4MNDBWzFhzyOiJFsW1KCM9k49VhmUSAkJnzZtm0rQwG/2HaO6wfZ3gYbKxx85IcI2Ph+ELFSzip+EDCnjwMQuJvA3QLGGZiJVtnA8p+vn+aPJm53u0oGSrAom0uOBSgEXgpaQcAoUFomM+4fnQ/BlAP9NJ81g2pBV4LW0+s5PLVf8cH3MbNsLo7ZOVaRsdeOJtxrPrT5kS+neXpVFoEJ83g+z+f4MKAiTWPZwwJ7RD4oyzYu1cj8xafAqzONflHtI/7aXO169ftKafOndy2055sFrPcqNfi6uB9CBkZjvVy6WdnaPFAHAiAwJnCfgPH3rrxpJYuWbmj55VvIzsY+vKFmm4BZlsADhWBdX5W1AL/mkgasTvCWoHkJuxa34Db0oQ6lQdBe89Xq7jkHYhG+az5Mf5BPKpLGQv9eroq5iQG9dgx29EHCxI18aCLTGHR97xTm/rVB9IHqyH4TlujD02v/WrhF5tZ/LehtugfRB51f935QAeNrKhktMrAuUBSCwCYC2wWMxav8gKO6UF8p1vo3ny8FLApDX4BygPOn+NPT/OHDE78qa2UaCLvflsxZCV6WeVCp+xACFbf2ADn2oX4j2fa9J3AZ+qDfaky8yEEPuuqfz1vmaFmdzZz+urjoOAt2zx/m356boMT6nr1oW47Jl/UsVERavt0t+2vJCgfv49fHS24+aD6M7wcTq3hfWtnNA6EhCIDAkMA2AeMfa1wRr5l+qXitzdCvQUUI1NSCg1R7go6BYmBgzlvS51a9/hywS0Btwcu+9VjApeCb/WmZSBhLM55eCObxwitO6tXzIVgrHFZ8SONK4LWMJc29cG1jrQub2Wrt6Sj7Y3U0Xvo+qBU8VxdSax3/kr3e97nYho7zuDxetTsSMC4vr0uT+ezD6H7oiVWvLJnGCQiAwM0ENgjYz/nbn/ozeX1VSD+Zl18lxrpHixfNSZ92/ZVREwuqlaAYnv6LEDCVFMQzpxTEtaovHtmPlFnEzKQ3PtktPiS/O316PkiZzTVzsJ+1c/ZT7KV+KaBLUJaMyQTZBNrGGQsH2b1fwMiHMLZdHhUUy+YSb2vT+zu6FsUe240stD7Np/TJPvTvh8Ta79nO/Hq+owwEQOAqgQ0CdtUmGoAACIAACIDA7gQgYLsjxgAgAAIgAAJ7EICA7UEVNkEABEAABHYnAAHbHTEGAAEQAAEQ2IMABGwPqrAJAiAAAiCwOwEI2O6IMQAIgAAIgMAeBCBge1CFTRAAARAAgd0JQMB2R4wBQAAEQAAE9iAAAduDKmyCAAiAAAjsTgACtjtiDAACIAACILAHAQjYHlRhEwRAAARAYHcCELDdEWMAEAABEACBPQhsEjDexNIX8i2L9vJK9brY70M3s7w+/d5ivN4rLuzqC7fGBWxtwdpbF1uNfXUx3TiGLd4aF9ON9Q/xwVbkjyun54Vl47YvzKLrA9XEfpFBnOcp7PMlZONCxL7AbRyjx8EvSj5YLH47ZGT+Fd9sLO+X7eMMBEDgfRHYJGAJQdqFOW+hknZrTp32ORkKGK8k3lZsp3ZppXF3hwJia+fFiwNqZ0F0UdkKKJBbMH24DzSM+DG9jFaCD3uVUfMVHxKT0q5NSETOhIoFx+anviz3N1OR9XbNWj1664r2PP+F3cs8LcrqSDgHARB4DwTuFrAkUmUDS9mdOe/YvCe0kYDlwKiZRsyM1Kncbuzpbe1onCZyuc/9PpB3JjrZdvR7KThNuKMPRbg1gzKhahajcOf5iTj2HgxKu2ZscTSeR/HPe6pYqb8yNwiY48EBCLxzApsFTMSJXhU2gSIx+/zt5zzPsi/Y529/zV9C/d4sRwLWyikQnubp9Tw/LQRsFCSXXrM9srH2yipmXyo2IgiP8aHtpiwbXjZhIn9ljLrP1ZADZVzKg0SEXjueX8LeX5yRySvWNk7gxQIyzefenmCFw5JmK+GxjWnKcMN8qN4zrCxWlxd6YMhlzTqOQAAE3huBzQLmICjrUpESAfvBG17KBpf0SrEJnPfZ6aAF6DyAlFMQ1IwoBGxrycHTA6OV9v7GzIXq5TxnK8uyx/oQ5qI7NjdhyT7TuBbwhz4ojwuJlzKQttmWzdUzHXrdSgIVxC/7seRQLQ7PVRQviwZi031gf6VM/ICALZChAATeKYH7BWwO371YzGx3ZkrE/po//wcETJ7s2+u8mL3Idc2CcO1a1+BO9lPgDkHdbD3UBw7u9qOT8HeRVer3pyAwJxNxcsz91AzHBXwsPE3oo2goxfpt0e0bhbf8JZ/63yMbbxWr9EACAXsLZbQFgSMTuF/AFj/iaBkXv2b8+uOX8anC4gOnABef4KVFC8reww8WwqMZj2UqlpW0DGwQ/B/sgzt4Qwbm4rriQ2LHAtkTjzy3JiT2A5HwkNDNTJvXNN5pIFDUirn3BFlfj/rrWBddsw0BMxL4CwLvncAmAWvfvz7NH+tP5TUL+0g/s691O9OUoNjPSESItC4FvfXsqydgNI04lgsEVaxkHY/2wXCS3eaDZlP6LamVS+t1H4xdECISPf8uFb6LsTnNwrS+ifg6B+raE7DI1F5L8jBDH/Jc+Ztf+kYmc8b/QQAE3ieBTQL2PlFgViAAAiAAAkciAAE70tWCryAAAiAAAk4AAuYocAACIAACIHAkAhCwI10t+AoCIAACIOAEIGCOAgcgAAIgAAJHIgABO9LVgq8gAAIgAAJOAALmKHAAAiAAAiBwJAIQsCNdLfgKAiAAAiDgBCBgjgIHIAACIAACRyIAATvS1YKvIAACIAACTgAC5ihwAAIgAAIgcCQCELAjXS34CgIgAAIg4AQ2CRjvwkyL9fK//828h6WbpO1VqK6We4M7DvLisWlrkLRp5GgIXfy1s8q5LXKbFqQdmfHFaGXx29QnLjzbGcc3mwx1NvabFqPlFeNt8d2T78nFLq/5EPulRY0j27CYb9wcc7RQrtqsCwfbSv1rq843xL2Fec2PWmflrXf3aI2D1/VW3e9ZW/chLkRs98PiuvKixzf63nMBZSAAAonAJgFLFuJ2Kr7/V9gjLDW+94SCbAgAHITaOQURCx69kaj+6WXy3Ye9DduZ5ulKf2vPgcmDPwU28yEe65Yg3k5693wge8vgb6MN/pJoFNs6QvCn+KDztE0i2ZfX79wtHs+lXfNARC4zljlPL8s5CKdpuK9Xs9s7IrsmLvG417ZXtnItiB09QAznObJn/uT60f3w/XWaz3/Xtsuy3AJnIAACtxK4W8A4G1vs+fWLBEwzIQv+FIRzcA0YYtAK2Y9lCdRvtb+b6onoSQSoiArZS9nHwIeHCtiKD3kczbiYRREIsnHqscyiQEhM+LJt2x+MAn6x7RzXD7K9DTZWOPjIDxGw8f0gAqacVYx7oub+4AAEQOBNBDYLWNsTrG1g2Ub+dQJGgc4ykbEAhcBLQSsI2G3928zkFaA+iXOgn+azZlAt6ErQeno9lyxCM7WeD7qnVn0tGkdOxyoy9trRhHvNh8aHeJzm6VVZBH+Yx/N5PseHAQ708rrSHhbYF/JBWbZxqUbmLz5tEJ+F6Im/Nle73olHOWn+9K6FNuZ59bOqYo6kmpktfQjzW9wPIduisV4uMwRsSRYlILCVwGYB8wF5A8sqYv8tAbMsgX0Owbq+KmsB3mfXOdCA1QneEjQv8/nZspcW3IY+1BE0CNprvlrdPedALOJ4zYfpD/KpCKkyuVx9GDAxoNeOwU7ZFZp8aCLTGHR97xTm/rVB9IHqyH77FmgCu8bBLTK3WwXMe7lAy1g6v+79oALG11TuCQhY5IhjELiPwP0CNvfEqld2n6PSm4KXfW+SkigMfQHKAc6foE9P84cPT/yqrJVpIOx+WzL/JYBa5kGl7kMIVNzaA+TYh/qNJGV4NuTVv4HL0Af9HmbiRTY96Kp/Pm+Zo2V1cXgXFx1nwe75w/zbcxOUWN+zF23LMfmSr3FtI+Ik3+5qnZ+vcPA2fn285OaD5sP4fjCxivelld08EBqCAAgMCdwvYPFHHD7MLxIwDlLtCToGCnelHmi20Qt/vf4csEtAbcHLvvVYwKXgm/1pmUhwZMUHHi+84qRePR+CNREiH3fFhzSuBF7LWNLcC9c21rqwma3Wno6yP1ZH46Xvg1rBc3UhtdbxL9mzDDeW1+M8Lo9X7Y4EjMv1u2Y1y+fZh9H90BOrXll3CBSCAAhcJbBJwNr3r0/zxz//mn/6MCRc9vN6/ZvqveHGA33a9VdGTSzIoATF8PRfhIAHTUE8u5GCuFb1xSP7kTKLmJn0xie7xYfkd6dPzwcps7lmDpxZGaNiL/VLAV2CsmRMJsgm0DbOWDjI7v0CRj6Ese3yqKBYNpd4W5ve39G1KPbYbmSh9Wk+pU/2oX8/JNZ2PXrz6/mOMhAAgasENgnYVatoAAIgAAIgAAI7E4CA7QwY5kEABEAABPYhAAHbhyusggAIgAAI7EwAArYzYJgHARAAARDYhwAEbB+usAoCIAACILAzAQjYzoBhHgRAAARAYB8CELB9uMIqCIAACIDAzgQgYDsDhnkQAAEQAIF9CEDA9uEKqyAAAiAAAjsTgIDtDBjmQQAEQAAE9iEAAduHK6yCAAiAAAjsTAACtjNgmAcBEAABENiHwCYB412YfdHe/83f2mq+88z7g+2xkO81AHEx2pNvtOi94sKuvnBr6cMLrnYWk3Uj8SD2zYvpxkVc04KwD/dBt0Q5LVdOH/rgi9Jmn2VvtLZo73W/hUVciNgXuI3ztEVsy6LCkaQdR58XC+yWxZplrHgNmu/dHQBsEPwFARB4NwQ2CViafdpO5ef87U/b3JKOP82fk7qlng8+oWBmQVlWB/cgzEHb6sL+XQsPoo1FZSigdn2h4yDsAhm6PNwHsi1+TC95JfihDyQsJCTFl7yDstlVXqUtCZZxzeOMmfDq+D0mAQ8dkj2zXaranmup4jJPC7u9stQJJyAAAu+EwN0CxtnY1x9dHFT37wiY7qGlwS0HRt36opMR5HbdKXHhuN1YAHOf+30gR0xMsu2xDz6jIkpmyzMXE7qFqES/6TiIONts4uZjzaVdq1gc5XmEarLduV4s4HSNNeMT8YOABXI4BIF3TWCzgLU9wSzjqpwkA/vyTy3f6zwGbgm09kqLAn185TS99gJi7L/uI9sjG/Z6zLIADbRn3qyRXmm1AP9oH9puyiVzWfHBZ8Vi0zJSKycBqa/uxn4HXiwg03zuZVBUZ3xsoMFfH7++ymUb5/nsOz2b71msLi/EO5cNhkIxCIDAOyCwWcB87vzNayliLHCDzMz7PvSAAmr7DhJfRUkQpnoVlM4TPQfPmwJtzEJoAkEsNRMw4Ywi81gfwlxqlrTig+PuCBjPX7Mc8pVfNWqWN/0RxnN2VDbNFxpP+5GNyD2x8cFvPOB5iFCJsLWHgXatTKziNbGyG8dBMxAAgcMSuF/AZtqFOf+Qg8XroTsx38JXAyo15eBXAp6Jl9WnV1IhQN8wVMtKpLEHbg/uZqT5VINwFDdp/QYfVKRsh2L/S3Na8cG8kh9sWBZDpXXsJspjv6No6AzC9zEuCeLmY9980Ngxq/hw4XNUsfJzMg4BuxkxGoLAwQncL2DpRxzzzN/Efrl40VUIAU+zIn91lQKcBN6YKbQn+uXVXARwzXjcdszAqhDEAP5gH6Kn5GObTxGj6IN1Il/8By9U2ARLmgQbK36ncdlme2hY2rTBdQR+zRpFNNczd3vIKP5yHQtaT6x6Zdk2zkAABN4HgU0C1r5/fZo/RrH6+df82X9erz+l/335enEfdFHA5rlmGRz07BVjfJqvolOck34xMEsDfs2m9pp42Lj2KjMH6Ef7YK6S3Zt8YCEw3/SvsSh1/hrUBLvLTrMwrYt9lhmmeRv5ZT6Rqb2W9F4x6zRh42tX5kO+2Jy8Mw5AAATeI4FNAvYeQWBOIAACIAACxyIAATvW9YK3IAACIAACSgAChlsBBEAABEDgkAQgYIe8bHAaBEAABEAAAoZ7AARAAARA4JAEIGCHvGxwGgRAAARAAAKGewAEQAAEQOCQBCBgh7xscBoEQAAEQAAChnsABEAABEDgkAQgYIe8bHAaBEAABEAAAoZ7AARAAARA4JAEIGCHvGxwGgRAAARAYJOA8Yrzvmhv3EpFNrH8aHVxod+HsM6Lx8YNI2U1+rCwqy/4GgemBX/bXlexxhbaTQvSxgblOC48m/rERXFv9MHG9m1RblqMNrNoPuRystnq4mLDeSFdWfy48UuLA8eFdHu+aX3qw7zMlzJWYSmnem1s0WD+a4so1zor7xpqhWvXwutu8U1MpusUOUQ+4f5K7X1eN/reZoEjEACBAYFNApZsle1UYh2tWv/5289YdOcxBcQQADgI2XlcjV4CZw2oJDpPL9Nye3q2M82T79y87iYHJg9gNG70wY5lp+S6MnrPB7JXfV33QPY88z4cQC0QF0bRELUjUdX5XrxOeDWhCyxLW/b/9bv3tL3EppflHITTJBtfhh63HQYf0lY5t/U2v85/S/t0zYYc1mxf5skfSMi38GBA9vx+aDa+v06zjW+lvTKrw18QAIG3EbhbwDgb6+68LNnYl3/e5tB662VwbgE1BryOeMSg5YGIRmvBm2y1ID7ypPjAAf4kAlQCGdk7xX23Bj5sErDkXpx78S+105MiSlTKvloQNj91KxUXSttnLfAz/os5+BjRt54z/bJsb4ONa9eChnUf+z6slaZ7pYxl/USs5P6y+wACZnTwFwTuJ7BZwNqeYHW/L9qhWfcC6wrbPU4vg3N7so5BToJGEyOq08yIglYIwK2/BPHWZ+RnGIcC12maz5pBtaAr4z+9nkP2ccWHe14xBcExQfbXkWGuPqNB4GYW5IcJmQqbMCH/T/P0GviFcdvcaZTIP/ByB64d1D4yts8p+Dey1PzpXQvtNeAwstnKyZ+WacsO4O31q91DSaxorJfLnMqaQRyBAAhsILBZwHwseoU42LSSRe6hIkbBKAQO22yRA1oOci1rEGHy8yhgJYClp2qfYD3Q4NoJ3hI0L/P52TI5batC0PWhmldRbK/3aoNyznPI7Kh5BQAADIZJREFUTGKLlFlZRZk3FbN4qdhxn3A8/RECtvMLZSVTY1suMo2BDX/tb+5fW5sg2WtMst/EwxivXQu32OHgdcODOn5pGK6HixVfU7knvKx0wykIgMDbCdwvYDNlXPGHHMGJle9jodUbDpcCRsFWglYIlBwwLKjnAOdP8aen+cOHp7mdtyAYM5ClcxLA4o7B7kMIVNzPA+TYh/qNRL7d2Pes5eiphO2bWKaadkI+uZhosftlzcg/40VlMkfKJFhMYh3ZI3HTuS74PX+Yf3sOLIO4WGZio/b/Vl+WrUScTMCW9VwyvBah/YJDqOse6rWvPFPbdo+aWNH9YXO3stQFJyAAApsI3C9gKyK1+484OEhZsKfAZ8crgYaCVu+1Wnpd1lguAnjJNuQ7igX/6EP5rtRMyreXgQ88Xqnr+WC/urTAGM23Y+FgWYmXLwK3tGu2gogkXgN7lYkPRAeZiVVxlufXy0o73y5blR6RvSYIi2ovyOPyeFV4Fhy0M5fbg5EbzN8JW3E+CvdkT6x6ZdkAzkAABG4lsEnA2vevT/PH9FP58P3r90f/ApGmpMLkT/UmWFSXA9bwA30KyBlTfFK2mr54ZD9a4JdfB3pWUoTIbLJvoU6CuWYtodza93xIfZRHy0RbBpTESwOz+0f9LKiXujgnGV9tWntzTv9SmzSW15frouXif7x+VEFt7WHADeiPLdqcom+h1fIwZomRa5kr84jz0vo0n2jL7j+1mfgEUc7l5n9nfkvPUQICIHADgU0CdoNdNAEBEAABEACBXQlAwHbFC+MgAAIgAAJ7EYCA7UUWdkEABEAABHYlAAHbFS+MgwAIgAAI7EUAArYXWdgFARAAARDYlQAEbFe8MA4CIAACILAXAQjYXmRhFwRAAARAYFcCELBd8cI4CIAACIDAXgQgYHuRhV0QAAEQAIFdCUDAdsUL4yAAAiAAAnsRgIDtRRZ2QQAEQAAEdiUAAdsVL4yDAAiAAAjsRWCTgPEuzLZpZXcrFdmNebRP2D6ToYVgbcHUk2z5EQeKi7H6wq2lD/e/dbHV2DcvShsXcR0uCPsQH9riwWkcXR3eFu1Ndb6QbfZZFj9u/FKfLjuBGxcV9kV2Y3u7JnEx3XhdwnHktlhgV3cLsDnJWPEaNN99geJgG4cgAALvj8AmAUsYOtupsMB9/TJ/GWx0mfo/7ISCmQXlsu0HB22rKxtcpvGjjVRRTqhdX+g4CLs4hW4P94Fsix/TS14JfugDCQsJSfHFVvl3AYor+5e2JFgmbnmcMRPesbjHJOChQ7JntksVb2WyrLvM08Jur6xawzkIgMB7IHC3gIlY/Wgsfv41f2bhoq1Vvsz/tJqdj7L4xOCaA6NuhdLJCHK7sbvjdtmHaCH3ud8Hsm1ikm2PfXB/iiiZLc9cTOgWohL9puMg4myziZuPxVvghHatYnGU5xGqyXbnerGAk4BpxicCBwEL5HAIAu+awGYBa3uCRZGSV4dfWLX+TQGTQGsZBQX6+Mppeu0FxBsCv94KbI9s2OsxywI00J5f7HVWC9yP9oGDtgb1FPhXfPA7mcWmZaRWTnbqq7ux34EXC8g0n3sZFNUZHxto8NfHr69y2cZ5PvtOz+Z7FqvLC/HOZYOhUAwCIPAOCGwWMJ87vULUTCtnY/+GgJlw5ExAgjAFXBWUzhM9B8+bAm3MQohCEEvNBEw4o8g81ocwl5olrfjg16wjYDx/FUTylV81apY3/RHGc3YqYDReT0h5sMDGB7/xgOchQiXC1h4G2rUysYrXxMpuHAfNQAAEDkvgfgGbSaj+N3/7aT/c+DR/9B94yLFkZHsz0oBKw3DwKwHPxMvq0yupEKBvcLNlJdKYAiq/vvLgbkaaTzUIR3GT1m/wQUXKftDgf2lOKz6YV8vdquvYTXjGfkfR0BmE72NcEsTNx775oLFjVvHhwueoYuXnZBwCdjNiNASBgxO4X8A6P+IQJv9GBmavljS4WtBLAU7q4g8C2hP98mouArhmPO21WAv29qOK899qJwbwB/sQPSUf23yKGEUfrBP54j94ocI4BzoPNlb8TuOyzfbQsLRpg8tfzvKSD7meudtDRvGX6/ja9sSqV5Zt4wwEQOB9ENgkYO3716f5459/zT+7LP5NAZvnmmVw0KvfrNjvEKw785B+MTBLIwnA8sqyiYeNa68yTVClz6N9MHfJ7k0+sBCYb/o3irzxOdk3w2t+64OC9vNXp9StJ5zmsL6aPBUBi0zttaR3IXvmnwkbC22ZD7WxOXlnHIAACLxHApsE7D2CwJxAAARAAASORQACdqzrBW9BAARAAASUAAQMtwIIgAAIgMAhCUDADnnZ4DQIgAAIgAAEDPcACIAACIDAIQlAwA552eA0CIAACIAABAz3AAiAAAiAwCEJQMAOedngNAiAAAiAAAQM9wAIgAAIgMAhCUDADnnZ4DQIgAAIgAAEDPcACIAACIDAIQlAwA552eA0CIAACIDAJgHjfb98yxTaSsVALrdUeexWKnnx2FPcIqUu7OoLvppv9JcW7m17XcUaW2g3LUgbG5TjuPBs6hMXzL3RBxvbF6u9aTHazKL5kMvJZquLiw3nhYZl8eO2MG5aHDgupNvzTetTH+ZlvpSxCks51WtjC/byX1tEudZZeddQK1y7Fl53i29iMl2nyCHyCfdXau/zutH3NgscgQAIDAhsErBkK22nQgIWBS21fMAJBcQQADgI2TkFOQtGEjhrQCXReXqZltvTs51pnnzn5nVXOTB5AKNxow92PM+5ndjs+UDtqq/rHshq796HA2ice/Mh2aF2JKo634tXCq8mdIFlacv+v373nrb1yvSynIPMfwrXJXS7ehh84AcPm9/VjtogXpdyLYYc1mxf5skfSMh2eDAge34/NBvfX6fZt9bR4l5Z64EjEACBtxC4W8DyLsy/WMB0Ww4J5DHglYBFRGLQ8kBEFS14U3BuQXyEsSeiugN0CWRkL20ZMvBhk4Al9+Lci3+pnZ4UUaJS9tWCsPlZd3tWVnGrExO0xRx8jOhbz5l+Wba3wca1a0HDuo99H9ZK071SxrJ+IlZyf9l9AAEzOvgLAvcT2CxgbU+wL/M/7kd5hTjcK8w7vPFgGZzlKZ9yiRjkJGg0MaI6zUooaAUBa/0liLc+I9fCOBS4TtN81gyqBV0Z/+n1HLKPKz7c84opCI4Jsr+ODHP1GQ0CN7MgP0zIVNiECfl/mqfXwC+M2+ZOo0T+gZc7cO2g9pGxfU7Bv5Gl5k/vWmivAYeRzVZO/oQsl++D9vrV7qEkVjTWy2VOZc0gjkAABDYQ2CxgPha9Qvw9ipjXzCxyX3+0gruPKBiFwKEZggTcHOT89VrK0vSp24J6CWDpqXroqwbXTvCWoHmZz8+WyWnbNR/qOBwM3/C6jOeQmUSTKbOyijJvKmbxUi7cJxxPf4SATX25LpSVTI1tucg0Bjb8tb+5f21tgmSvMcl+Ew+77mvXwi12OHjd8KCOXxqG6+FipQJHwuZlpRtOQQAE3k7gfgGbaeflwXcvEredBYyC7eIVIgcMC+o5wPlT/Olp/vDhqe3yG4JgzECWSCWA9V6j8WvK+G3EA+TYh/qNJGeSy9FTCds3sUw17YRYuJhosftlzcg/40VlMkcJuMQo1JE9EjANyo2nisjzh/m35yYosd4yExu1/7f6smwl4mQCtqznEvXPx1zMecsrRL32lWdygdoILxOr+GBkZakLTkAABDYRuF/A0o84og/yOvFz+4lirNx43IIDG+AgZdkKBT47Xgk0FMg0u6hOxEBjdZwNxABesg35jmIBPvpQviuZQfq74gOPV/zr+WC/qPQAHe37sXCwrMSLF8Fc2jVbQUSSrwN7lYkPRAeZiVVxlufXy0o73y5blR6RvSuizS3zuDxeFZ4FBx2Cy+3BqDnQtdGq5Sjckz2x6pVVEzgHARC4jcAmAWvfvz7NH9N3LsrGPs0f9d9jxYsmpMLk2ZIJFtXlgDX8QJ8CcoZ0q4BVP1rg1x+LmH9FiHy04oMEc8tgznPNLXoClvroeC0TbRlQEi8NzDEr8uys1MU5yfhqs4qATorapLF8suW6aLn4H68fVVBbexhwA/pjizan6FtotTyMWWK8FmWuzCPOS+vTfKKtcn0TnyDKudz878xv6TlKQAAEbiCwScBusIsmIAACIAACILArAQjYrnhhHARAAARAYC8CELC9yMIuCIAACIDArgQgYLvihXEQAAEQAIG9CEDA9iILuyAAAiAAArsSgIDtihfGQQAEQAAE9iLwf/d6kEzn41seAAAAAElFTkSuQmCC;" vertex="1" parent="1">
          <mxGeometry x="-40" y="-920" width="432" height="792" as="geometry" />
        </mxCell>
      </root>
    </mxGraphModel>
  </diagram>
</mxfile>
